<?xml version="1.0" encoding="UTF-8" standalone="no"?>
<!-- Created with Inkscape (http://www.inkscape.org/) -->

<svg
   xmlns:dc="http://purl.org/dc/elements/1.1/"
   xmlns:cc="http://creativecommons.org/ns#"
   xmlns:rdf="http://www.w3.org/1999/02/22-rdf-syntax-ns#"
   xmlns:svg="http://www.w3.org/2000/svg"
   xmlns="http://www.w3.org/2000/svg"
   xmlns:sodipodi="http://sodipodi.sourceforge.net/DTD/sodipodi-0.dtd"
   xmlns:inkscape="http://www.inkscape.org/namespaces/inkscape"
   width="220"
   height="130"
   viewBox="0 0 58.208334 34.395832"
   version="1.1"
   id="svg8"
   inkscape:version="0.92.3 (2405546, 2018-03-11)"
   sodipodi:docname="meuVigilante.svg">
  <defs
     id="defs2" />
  <sodipodi:namedview
     id="base"
     pagecolor="#ffffff"
     bordercolor="#666666"
     borderopacity="1.0"
     inkscape:pageopacity="0.0"
     inkscape:pageshadow="2"
     inkscape:zoom="2.8"
     inkscape:cx="95.221487"
     inkscape:cy="80.810132"
     inkscape:document-units="mm"
     inkscape:current-layer="layer1"
     showgrid="false"
     units="px"
     showguides="false"
     inkscape:pagecheckerboard="true"
     inkscape:window-width="1600"
     inkscape:window-height="835"
     inkscape:window-x="0"
     inkscape:window-y="0"
     inkscape:window-maximized="1" />
  <metadata
     id="metadata5">
    <rdf:RDF>
      <cc:Work
         rdf:about="">
        <dc:format>image/svg+xml</dc:format>
        <dc:type
           rdf:resource="http://purl.org/dc/dcmitype/StillImage" />
        <dc:title />
      </cc:Work>
    </rdf:RDF>
  </metadata>
  <g
     inkscape:label="Camada 1"
     inkscape:groupmode="layer"
     id="layer1"
     transform="translate(0,-262.60418)">
    <g
       aria-label="MEU"
       transform="matrix(0.26458333,0,0,0.26458333,4.0632441,260.80879)"
       style="font-style:normal;font-weight:normal;font-size:40px;line-height:1.25;font-family:sans-serif;letter-spacing:0px;word-spacing:0px;fill:#000000;fill-opacity:1;stroke:none"
       id="flowRoot815">
      <path
         d="m 114.60938,36.912109 3,0.859375 2,-0.578125 H 119.75 q 0.29688,0 0.29688,1 l 0.5625,1.296875 q 0.20312,0 0.29687,1.140625 0.32813,0 0.84375,0.5625 l -0.42187,0.71875 v 0.4375 q 0.65625,0.609375 0.71875,1.703125 0.28125,0 0.28125,1.296875 l 0.71875,0.421875 q 0,-1.359375 1,-2.71875 h 0.28125 l -0.14063,0.140625 v 1.15625 l 0.5625,1.5625 q -0.84375,3.296875 -1.42187,3.296875 -0.28125,0 -0.28125,0.421875 l 0.14062,0.140625 v 0.140625 l -0.85937,2.4375 0.14062,2.421875 -0.71875,1.4375 0.15625,0.5625 -0.71875,0.859375 q -0.39062,1.296875 -0.71875,1.296875 h -0.28125 q -0.625,-0.4375 -1.4375,-3.71875 l -1.42187,-2.71875 -0.14063,-0.578125 0.28125,-0.703125 q 0,-0.5 -1.28125,-2.71875 l -2.15625,-7 q -0.51562,-2.140625 -0.70312,-2.15625 -1.29688,0 -1.71875,-1 v -0.140625 q 0,-0.71875 3,-1.28125 z m 14.71874,0.28125 q 0.75,0.578125 1.4375,0.578125 v 0.140625 l 0.14063,-0.140625 h 0.28125 l 0.14062,0.140625 1.29688,-0.421875 q 1.70312,0.21875 1.70312,0.703125 v 0.4375 q -1.85937,1.328125 -1.85937,1.859375 l 0.15625,0.140625 v 0.140625 l -0.15625,0.421875 0.29687,1.578125 -0.29687,1 0.29687,2.4375 q -0.29687,1.28125 -0.71875,1.84375 0.8125,1.859375 1.14063,1.859375 v 0.140625 q 0,0.296875 -0.5625,0.296875 0,2 0.42187,4.28125 l -0.14062,1.859375 q 0.23437,0 1.28125,1.578125 -0.28125,0.890625 -0.71875,1 H 132.625 l -1.4375,-0.296875 -0.71875,0.15625 -1.14063,-0.296875 h -0.28125 q -1.57812,0.296875 -1.99999,0.71875 l -2.4375,-0.71875 q -0.85938,0 -0.85938,-0.421875 0.48438,-1.25 2.15625,-2 v -0.296875 l -0.14062,-3.28125 0.28125,-3 v -0.578125 l -0.14063,-1 0.28125,-0.28125 -0.42187,-1.5625 v -0.71875 l 0.14062,-1.296875 -0.14062,-0.421875 0.14062,-0.71875 -0.14062,-0.859375 0.14062,-0.421875 -0.57812,-0.578125 q 0.28125,-1.265625 0.28125,-3.421875 0,-0.328125 0.71875,-0.4375 l 0.85937,0.15625 z m -4.99999,4.859375 h 0.28125 v 0.296875 l -0.42188,0.421875 v -0.28125 z m -10.71875,3.71875 H 113.75 q 0.71875,0.4375 0.71875,1 h -0.14062 q 0.71875,0.96875 0.71875,2.578125 l -0.15625,0.5625 0.57812,0.578125 -0.14062,0.578125 0.28125,0.5625 -0.14063,0.578125 0.14063,1.28125 q -0.42188,0 -0.42188,1.578125 0.6875,0.1875 1.42188,1.859375 0.67187,0 1.57812,1 0,0.84375 -1.4375,0.84375 l -0.42187,0.4375 h -0.14063 l -0.14062,-0.140625 -0.15625,0.140625 h -1 l -0.5625,-0.4375 h -0.4375 l -2.14063,0.15625 -0.14062,-0.4375 0.14062,-0.140625 v -0.140625 l -0.14062,-0.578125 2.14062,-1.859375 -0.14062,-1.421875 0.42187,-1.71875 -0.28125,-4.578125 0.14063,-0.140625 v -0.140625 q -0.28125,-0.5625 -0.28125,-1.5625 z m 22.74999,-11.1875 q -0.17187,-0.0625 -0.17187,-0.125 -0.625,0.0625 -0.75,0.1875 -1.3125,-0.0625 -1.3125,-0.1875 l -0.1875,0.125 -0.375,-0.125 h -0.1875 l -0.1875,0.125 h -0.3125 l -0.6875,0.0625 -0.0625,-0.0625 h -0.0625 l -0.5625,0.0625 H 131 l -1.0625,-0.25 q -0.875,0.0625 -0.875,0.375 l -0.375,-0.125 -0.1875,0.0625 -0.375,-0.125 -0.375,0.0625 q -0.64062,-0.07813 -0.75,-0.1875 h -1.3125 l -0.875,0.1875 -1,-0.125 -1.125,0.0625 -1.3125,-0.1875 q 0,0.171875 -0.9375,0.25 l -0.25,-0.0625 h -0.5 l -0.5,-0.1875 -0.8125,0.1875 -0.1875,-0.0625 q -0.8125,0.0625 -0.8125,0.1875 l -0.3125,-0.0625 -0.25,0.0625 q -0.34375,-0.3125 -1.1875,-0.3125 l -0.125,0.125 h -0.0625 l -0.25,-0.0625 -0.25,0.125 -0.5,-0.125 -1,0.1875 -0.4375,-0.25 -0.375,0.125 -0.0625,-0.0625 H 112.5 l -0.625,0.0625 -0.5625,-0.1875 q -0.0156,0.01563 -0.0469,0.03125 v -1.734375 l 0.17187,0.01563 0.375,-0.125 h 0.25 q 0.3125,0 0.625,0.1875 l 0.5625,-0.0625 q 0,0.07813 0.625,0.25 0.32813,-0.07813 0.5,-0.3125 l 0.25,-0.0625 0.4375,0.0625 0.0625,-0.0625 2.25,0.1875 0.25,-0.0625 0.75,0.1875 0.6875,-0.0625 0.5,0.0625 0.875,-0.1875 1.0625,0.125 0.375,-0.125 h 0.3125 l 0.5,0.125 0.1875,-0.125 H 123 v 0.0625 l 1.4375,-0.125 1,0.1875 q 0.35938,-0.1875 0.75,-0.1875 0.34375,0.1875 0.6875,0.1875 l 1.9375,-0.3125 0.9375,0.25 1,-0.125 0.75,0.125 0.4375,-0.0625 0.0625,0.0625 h 0.0625 l 0.25,-0.0625 0.1875,0.0625 0.1875,-0.0625 1.875,0.1875 0.5625,-0.0625 h 0.25 l 0.0625,-0.0625 0.0625,0.0625 h 0.625 l 0.23437,-0.0625 z m 0,28.578125 -1.04687,-0.04687 -1,0.1875 -0.375,-0.1875 -0.1875,0.0625 -0.25,-0.0625 -0.5,0.125 -0.0625,-0.0625 h -0.5625 l -0.6875,0.0625 q -0.25,-0.125 -0.6875,-0.125 l -0.5625,0.125 q -0.75,0 -1.125,-0.25 l -0.5625,0.1875 -0.625,-0.0625 h -0.0625 l -0.0625,0.0625 -0.375,-0.125 -0.4375,0.25 -1,-0.1875 -0.5,0.125 -0.25,-0.125 -0.25,0.0625 h -0.0625 l -0.125,-0.125 q -0.84375,0 -1.1875,0.3125 l -0.25,-0.0625 -0.3125,0.0625 q 0,-0.125 -0.8125,-0.1875 l -0.1875,0.0625 -0.8125,-0.1875 -0.5,0.1875 h -0.5 l -0.25,0.0625 q -0.9375,-0.07813 -0.9375,-0.25 l -1.3125,0.1875 -1.125,-0.0625 -1,0.125 -0.875,-0.1875 h -1.3125 q -0.10937,0.109375 -0.75,0.1875 l -0.375,-0.0625 -0.375,0.125 -0.1875,-0.0625 -0.375,0.125 q 0,-0.1875 -0.29687,-0.28125 v -1.890625 l 0.54687,-0.140625 1.9375,0.3125 q 0.34375,0 0.6875,-0.1875 0.39063,0 0.75,0.1875 l 1,-0.1875 1.4375,0.125 v -0.0625 h 0.125 l 0.1875,0.125 0.5,-0.125 h 0.3125 l 0.375,0.125 1.0625,-0.125 0.875,0.1875 0.5,-0.0625 0.6875,0.0625 0.75,-0.1875 0.25,0.0625 2.25,-0.1875 0.0625,0.0625 0.4375,-0.0625 0.25,0.0625 q 0.17188,0.234375 0.5,0.3125 0.625,-0.171875 0.625,-0.25 l 0.5625,0.0625 q 0.32812,-0.1875 0.625,-0.1875 h 0.25 l 0.375,0.125 0.5,-0.0625 0.8125,0.125 0.6875,-0.25 q 1.3125,0.25 2.4375,0.25 h 0.0625 l 0.0625,-0.0625 0.0625,0.0625 0.5,-0.0625 0.375,0.0625 q 0.25,0 0.25,-0.1875 0.375,0 1.42187,0.296875 z"
         style="font-style:normal;font-variant:normal;font-weight:normal;font-stretch:normal;font-size:32px;line-height:0;font-family:'Top Secret';-inkscape-font-specification:'Top Secret';text-align:center;text-anchor:middle;fill:#0f920f;fill-opacity:0.94117647"
         id="path910" />
      <path
         d="m 139.73437,36.912109 q 1.67188,0.71875 3.48438,0.875 l 1.01562,-0.296875 q 0.28125,0 1.01563,1.15625 v 1.3125 l -0.57813,0.859375 v 0.734375 l 0.14063,1.734375 -0.29688,2.03125 1.01563,2.328125 q 0,0.8125 -1.29688,4.203125 v 0.140625 l 0.28125,0.4375 -0.14062,0.578125 0.29687,1.453125 -0.15625,0.140625 v 0.140625 l 0.15625,0.140625 v 0.4375 h -0.15625 l 0.15625,1.015625 v 2.46875 l -0.15625,0.140625 v 0.140625 L 144.375,58.943359 h -0.14063 l -2.60937,0.4375 -1.89063,-1.015625 L 138,59.083984 h -0.29688 q -0.79687,0 -1.4375,-1 0,-0.59375 1.29688,-0.875 l 0.14062,-0.140625 v -0.15625 L 137.42187,56.333984 138,54.740234 q 0,-1.28125 -0.4375,-1.875 l 0.29687,-1.171875 v -1.4375 l -0.15625,-0.59375 0.15625,-0.578125 -0.29687,-2.03125 0.4375,-1.59375 -0.4375,-2.3125 L 138,40.818359 q -0.79688,-1.53125 -2.03125,-2.171875 0,-1.59375 3.76562,-1.59375 z m 7.54688,0 0.57812,0.296875 L 148,37.052734 h 0.14062 l 1.59375,0.296875 1.59375,-0.140625 1.17188,0.28125 v 0.71875 l 0.14062,4.640625 q -0.625,0.78125 -1.45312,0.875 l -1.15625,-1.453125 v -0.4375 l 0.14062,-0.140625 q -0.92187,-1.734375 -1.875,-1.734375 l -0.15625,-0.578125 -1.29687,0.140625 q -0.73438,-0.09375 -0.73438,-0.875 v -1.15625 q 0,-0.28125 1.17188,-0.578125 z m 1.73437,6.375 v 0.875 q 0.39063,0 0.71875,4.78125 l -0.14062,0.4375 0.4375,1.15625 -0.14063,0.140625 0.14063,0.734375 q -0.1875,1.15625 -0.875,1.15625 -0.54688,-0.03125 -1.73438,-1.890625 -0.29687,0 -0.29687,-0.859375 l -1.01563,-1.015625 q 0,-2.03125 1.01563,-2.03125 0,-0.296875 0.4375,-0.296875 l 0.73437,-3.046875 0.14063,-0.140625 z m 3.04688,8.984375 q 0.67187,0 0.85937,2.328125 h 0.15625 l -0.4375,1.15625 0.14063,0.140625 -0.14063,0.734375 v 2.3125 l -0.57812,0.140625 -2.75,-0.421875 -3.04688,0.421875 0.14063,-0.421875 -0.14063,-0.875 v -0.140625 q 0,-0.296875 1.29688,-0.296875 0.1875,-0.4375 2.03125,-1.453125 1.10937,-2.734375 2.17187,-3.625 z m 3.09375,-17.453125 -0.4375,-0.140625 q -0.375,0.25 -1.125,0.25 l -0.5625,-0.125 q -0.4375,0 -0.6875,0.125 l -0.6875,-0.0625 h -0.5625 l -0.0625,0.0625 -0.5,-0.125 -0.25,0.0625 -0.1875,-0.0625 -0.375,0.1875 -1,-0.1875 -1.25,0.0625 q -0.8125,0 -1.3125,-0.1875 -0.64063,0.4375 -0.875,0.4375 h -0.1875 l -1.1875,-0.25 h -0.875 l -0.4375,0.125 -1.0625,-0.125 q -0.29688,0 -0.9375,0.3125 -0.29688,0 -0.875,-0.4375 h -0.125 l -0.1875,0.1875 h -0.0625 v -0.125 h -0.0625 q -0.23438,0.25 -0.4375,0.25 l -0.5,-0.0625 -0.0625,0.0625 q -0.0625,-0.1875 -0.375,-0.1875 -0.9375,0.01563 -0.9375,0.125 l -0.6875,-0.1875 -0.375,0.0625 h -0.0625 q -0.1875,0 -0.25,-0.8125 h -0.0625 q 0.0625,-1.0625 0.6875,-1.0625 l 0.5625,-0.125 q 0,0.125 0.1875,0.125 l 0.5,-0.0625 v 0.0625 q 0.57812,-0.07813 0.8125,-0.25 0.60937,0.125 0.875,0.375 l 0.25,-0.0625 0.1875,0.0625 0.5,-0.0625 0.0625,0.0625 0.3125,-0.0625 h 0.1875 l 0.875,0.0625 0.0625,-0.0625 h 0.0625 l 0.375,0.125 1.125,-0.1875 h 0.1875 l 0.5,0.125 h 0.3125 q 0.45312,0 1.125,-0.1875 l 0.1875,0.0625 0.875,-0.0625 h 0.25 l 1,0.25 q 1.10937,-0.3125 1.5,-0.3125 0,0.1875 0.25,0.1875 l 0.375,-0.0625 0.5,0.0625 0.0625,-0.0625 0.0625,0.0625 h 0.0625 q 1.14062,0 2.4375,-0.25 l 0.6875,0.25 0.8125,-0.125 0.5,0.0625 0.3125,-0.109375 z m -0.0469,28.6875 -0.4375,0.125 -0.1875,-0.0625 -0.4375,0.125 -0.5625,-0.1875 h -1 l -0.375,-0.0625 -0.875,0.125 -1.0625,-0.25 -1,0.125 -0.4375,-0.0625 -0.25,0.0625 -0.3125,-0.0625 -0.3125,0.1875 -0.3125,-0.1875 q -0.71875,0.0625 -0.9375,0.25 l -0.9375,-0.125 -0.5625,0.125 -0.1875,-0.1875 h -0.1875 l -0.1875,0.1875 -0.25,-0.0625 -0.375,0.0625 -0.8125,-0.1875 v 0.0625 l -1,-0.3125 -1.3125,0.375 -1.75,-0.1875 q -0.0625,0.1875 -0.375,0.1875 h -0.25 q -0.32812,0 -0.5625,-0.1875 l -1.3125,0.1875 q -0.875,0 -0.875,-0.4375 l 0.0625,-0.25 q 0,-0.53125 -0.3125,-1 0.1875,-0.5 0.875,-0.5 l 0.9375,0.25 h 0.25 l 1.125,0.125 0.6875,-0.125 0.375,0.0625 1.875,-0.3125 h 0.3125 q 0.17188,0.25 1.8125,0.25 h 0.75 l 0.5625,-0.0625 q 0.875,0.09375 0.875,0.1875 l 1.25,-0.125 0.4375,0.125 q 0.29688,-0.1875 1.125,-0.1875 h 0.0625 l 0.625,0.1875 h 0.5 l 0.8125,-0.25 h 0.75 l 0.25,0.0625 0.0625,-0.0625 0.9375,0.0625 1.5625,-0.1875 0.875,0.171875 z"
         style="font-style:normal;font-variant:normal;font-weight:normal;font-stretch:normal;font-size:32px;line-height:0;font-family:'Top Secret';-inkscape-font-specification:'Top Secret';text-align:center;text-anchor:middle;fill:#0f920f;fill-opacity:0.94117647"
         id="path912" />
      <path
         d="m 163.51562,36.912109 q 1.32813,0 1.40625,1.5625 -1.54687,0.875 -1.54687,2.96875 l -0.42188,1.5625 0.42188,1.546875 -0.14063,2.265625 0.28125,0.4375 -0.42187,1.265625 v 1 l 0.28125,3.8125 v 0.859375 q 0.4375,3.109375 1.54687,3.109375 0.4375,0 0.4375,0.28125 v 1 q 0,0.28125 -0.4375,0.28125 l -0.70312,-0.140625 -1.84375,0.5625 q -2.10938,-1.640625 -3.95313,-1.84375 l -1.28125,-1.265625 -0.42187,-2.5625 0.14062,-0.140625 V 53.333984 L 156.71875,52.912109 157,49.943359 q -0.46875,0 -0.5625,-1.84375 v -0.421875 l 0.42187,-3.828125 -0.5625,-2.125 v -0.5625 q 0,-0.734375 0.42188,-1.28125 v -0.5625 q -1.46875,-0.328125 -1.84375,-0.84375 0,-0.578125 0.70312,-0.578125 l 0.14063,-0.703125 h 1 l 1.5625,-0.140625 q 0.42187,0.28125 2.26562,0.421875 z m 7.64063,0 q 1.46875,0 2.125,0.84375 1,0 1,0.4375 -2.26563,2.75 -2.26563,4.09375 l 0.14063,0.140625 v 0.15625 l -0.57813,1.265625 0.57813,2.125 -0.57813,3.265625 q 0.4375,0.703125 0.57813,1.96875 l -0.42188,2.5625 h 0.14063 l -0.57813,1.125 0.14063,0.140625 v 0.140625 q -1.26563,3.546875 -2.54688,3.546875 l -2.125,-0.140625 v -1.421875 q 0.78125,0 2.70313,-1.421875 v -0.84375 q 1.26562,-0.953125 1.26562,-2.265625 l -0.5625,-2.6875 q 0,-4.53125 0.5625,-4.53125 l -0.14062,-1 v -0.84375 l -0.28125,-0.421875 0.28125,-0.5625 q -0.23438,-0.296875 -0.42188,-2.421875 -0.5625,0 -0.5625,-0.28125 l 0.14063,-0.5625 q -1.70313,-0.5 -1.70313,-0.703125 l -0.14062,-0.421875 q 0,-0.578125 2.125,-0.859375 z m 5,26.515625 -0.51563,0.04687 -0.125,-0.125 -0.125,0.125 -0.625,-0.0625 h -0.5625 l -0.625,0.3125 -1,-0.25 -0.0625,0.0625 h -0.0625 l -0.5,-0.1875 h -0.6875 l -0.25,0.125 -0.25,-0.125 -0.5625,0.0625 -0.0625,-0.0625 -0.5,0.125 h -0.1875 l -0.75,-0.1875 -0.625,0.125 -0.25,-0.0625 -0.875,0.1875 -0.0625,-0.0625 h -0.0625 l -0.4375,0.125 -0.1875,-0.0625 -0.4375,0.125 -0.5625,-0.1875 h -1 l -0.375,-0.0625 -0.875,0.125 -1.0625,-0.25 -1,0.125 -0.4375,-0.0625 -0.25,0.0625 -0.3125,-0.0625 -0.3125,0.1875 -0.3125,-0.1875 q -0.71875,0.0625 -0.9375,0.25 l -0.9375,-0.125 -0.5625,0.125 -0.1875,-0.1875 h -0.1875 l -0.1875,0.1875 -0.25,-0.0625 -0.375,0.0625 -0.8125,-0.1875 v 0.0625 l -0.25,-0.07813 v -1.8125 q 0.34375,0.01563 0.8125,0.01563 h 0.75 l 0.5625,-0.0625 q 0.875,0.09375 0.875,0.1875 l 1.25,-0.125 0.4375,0.125 q 0.29688,-0.1875 1.125,-0.1875 h 0.0625 l 0.625,0.1875 h 0.5 l 0.8125,-0.25 h 0.75 l 0.25,0.0625 0.0625,-0.0625 0.9375,0.0625 1.5625,-0.1875 1.875,0.375 0.6875,-0.0625 0.375,0.125 h 0.0625 l 0.0625,-0.0625 0.5,0.125 q 0,-0.140625 1.0625,-0.375 0.23438,-0.25 0.5,-0.3125 0.45313,0.4375 0.9375,0.4375 l 0.3125,-0.1875 q 0.14063,0.203125 0.9375,0.375 l 0.75,-0.1875 0.6875,0.0625 h 0.3125 l 0.375,-0.1875 q 0.29688,0.1875 0.5625,0.1875 h 0.20313 z m 0.0625,-28.71875 h -0.0781 l -0.625,0.0625 -0.125,-0.125 -0.125,0.125 -0.75,-0.0625 h -0.625 l -0.3125,-0.0625 -0.1875,0.1875 -0.5625,-0.1875 -0.25,0.0625 h -0.0625 l -0.0625,-0.0625 -0.375,0.1875 -0.6875,-0.125 -0.4375,0.0625 -0.875,-0.25 -1.75,0.25 -0.0625,-0.0625 -0.3125,0.0625 -0.375,-0.0625 -0.9375,0.125 q -0.48437,0 -1.125,-0.1875 h -0.0625 q -0.23437,0.1875 -0.4375,0.1875 h -0.1875 q -0.375,0 -0.75,-0.375 l -0.75,0.125 -0.25,-0.0625 -0.25,0.0625 h -0.5 q -0.35937,0.25 -0.5625,0.25 l -0.5,-0.0625 h -0.0625 l -0.0625,0.0625 -0.3125,-0.1875 -0.375,0.1875 -0.375,-0.125 q -0.23437,0.1875 -0.5625,0.1875 h -0.1875 l -0.5,-0.1875 q -1.25,0 -2.4375,0.1875 -0.57812,0 -1,-0.375 0,0.234375 -0.8125,0.3125 v -1.875 q 0,-0.125 1.4375,-0.3125 l 0.375,0.0625 h 0.0625 l 0.0625,-0.0625 q 0.25,0.09375 0.25,0.1875 l 0.4375,-0.0625 h 0.4375 l 1.625,0.3125 0.625,-0.25 v 0.0625 q 0.59375,0 1.125,-0.1875 l 0.625,0.125 q 1.1875,0 1.8125,-0.25 1.25,0.4375 1.6875,0.4375 h 0.3125 q 0.75,-0.25 1.4375,-0.3125 l 0.1875,0.1875 h 0.1875 v -0.125 h 0.1875 q 0,0.1875 0.3125,0.1875 h 0.125 l 0.0625,-0.0625 0.3125,0.1875 h 0.1875 q 0.125,-0.125 0.5,-0.125 l 0.3125,-0.3125 1.75,0.4375 h 0.0625 l 0.8125,-0.375 0.0625,0.0625 h 0.5625 q 0.0937,0 0.1875,0.25 l 1.375,-0.1875 q 0.34375,0.125 0.875,0.125 0.26563,0 0.5625,-0.1875 l 0.375,0.1875 h 0.32813 z"
         style="font-style:normal;font-variant:normal;font-weight:normal;font-stretch:normal;font-size:32px;line-height:0;font-family:'Top Secret';-inkscape-font-specification:'Top Secret';text-align:center;text-anchor:middle;fill:#0f920f;fill-opacity:0.94117647"
         id="path914" />
    </g>
    <rect
       style="fill:#0f920f;fill-opacity:1;fill-rule:nonzero;stroke:none;stroke-width:1.05833328;stroke-miterlimit:4;stroke-dasharray:none;stroke-opacity:1"
       id="rect845"
       width="18.615326"
       height="27.970238"
       x="4.2522321"
       y="266.57294"
       ry="1.8898809" />
    <rect
       style="fill:#007200;fill-opacity:1;fill-rule:nonzero;stroke:none;stroke-width:0.99301201;stroke-miterlimit:4;stroke-dasharray:none;stroke-opacity:1"
       id="rect845-4"
       width="17.386904"
       height="26.363838"
       x="4.9514871"
       y="267.65018"
       ry="1.7813405" />
    <ellipse
       style="fill:#0f920f;fill-opacity:0.94117647;fill-rule:nonzero;stroke:#007200;stroke-width:0.26458332;stroke-miterlimit:4;stroke-dasharray:none;stroke-opacity:1"
       id="path862"
       cx="-235.68719"
       cy="157.84142"
       rx="4.7719498"
       ry="4.1104908"
       transform="rotate(-57.019792)" />
    <g
       aria-label="VIGILANTE"
       transform="matrix(0.26414978,-0.01514045,0.01514045,0.26414978,-7.4199232,273.81164)"
       style="font-style:normal;font-weight:normal;font-size:40px;line-height:1.25;font-family:sans-serif;letter-spacing:0px;word-spacing:0px;fill:#000000;fill-opacity:1;stroke:none"
       id="flowRoot815-8">
      <path
         d="m 65.15625,36.912109 q 5.375,0.390625 5.375,0.71875 v 0.875 l -1.015625,1.015625 v 0.578125 l 0.28125,0.296875 -0.140625,1.015625 q 0.109375,2.03125 0.578125,2.03125 l -0.140625,0.734375 v 0.28125 l 0.4375,1.3125 q 0.71875,0 1.890625,4.0625 l -0.15625,1.3125 q 0.296875,0 0.296875,1.453125 l 0.578125,0.71875 q -0.4375,0.703125 -0.4375,1.890625 v 1.015625 q -1.203125,2.75 -1.734375,2.75 L 68.9375,59.271484 Q 67.5,59.130859 67.046875,58.693359 l 0.140625,-0.875 q 0,-1.4375 -1.015625,-2.328125 L 66.3125,55.349609 v -0.28125 q -1.59375,-5.703125 -2.609375,-7.5625 L 64,47.068359 q -0.296875,-2.171875 -1.453125,-4.5 v -1.453125 q 0,-1.328125 -2.03125,-2.171875 l -0.296875,-0.875 q 0.34375,-0.859375 0.578125,-0.859375 H 60.9375 l 1.171875,0.28125 h 0.71875 l 1.015625,-0.28125 0.875,0.140625 z m 12.1875,0 h 0.59375 q 1.296875,0 1.296875,0.71875 0,1.609375 -1.296875,1.609375 l -1.890625,2.171875 q 0,2.8125 -1.015625,3.921875 l -0.140625,1.3125 q 0,0.71875 0.28125,0.71875 -0.71875,1.546875 -1.15625,3.78125 h -0.15625 l -0.421875,-0.296875 0.578125,-0.875 Q 73.4375,48.927734 73.28125,47.365234 l 0.15625,-0.875 -0.15625,-0.4375 q 0,-1.1875 1.015625,-2.46875 l 0.296875,-2.03125 v -0.71875 q 0,-1.25 -1.3125,-2.03125 l -0.71875,-1.015625 0.140625,-0.4375 z m 3.859375,26.625 q -0.0625,0 -0.140625,0.01563 l -0.4375,-0.125 -0.375,0.0625 q -0.875,-0.0625 -0.875,-0.3125 -0.421875,0.375 -1,0.375 -1.1875,-0.1875 -2.4375,-0.1875 l -0.5,0.1875 H 75.25 q -0.328125,0 -0.5625,-0.1875 l -0.375,0.125 -0.375,-0.1875 -0.3125,0.1875 -0.0625,-0.0625 H 73.5 l -0.5,0.0625 q -0.203125,0 -0.5625,-0.25 h -0.5 l -0.25,-0.0625 -0.25,0.0625 -0.75,-0.125 q -0.375,0.375 -0.75,0.375 H 69.75 q -0.203125,0 -0.4375,-0.1875 H 69.25 q -0.640625,0.1875 -1.125,0.1875 l -0.9375,-0.125 -0.375,0.0625 -0.3125,-0.0625 -0.0625,0.0625 -1.75,-0.25 -0.875,0.25 -0.4375,-0.0625 -0.6875,0.125 -0.375,-0.1875 -0.0625,0.0625 h -0.0625 l -0.25,-0.0625 -0.5625,0.1875 -0.1875,-0.1875 -0.3125,0.0625 H 60.25 l -0.234375,0.01563 v -1.765625 q 0.390625,-0.03125 0.671875,-0.125 l 1.375,0.1875 q 0.09375,-0.25 0.1875,-0.25 h 0.5625 l 0.0625,-0.0625 0.8125,0.375 H 63.75 l 1.75,-0.4375 0.3125,0.3125 q 0.375,0 0.5,0.125 H 66.5 l 0.3125,-0.1875 0.0625,0.0625 H 67 q 0.3125,0 0.3125,-0.1875 H 67.5 v 0.125 h 0.1875 l 0.1875,-0.1875 q 0.6875,0.0625 1.4375,0.3125 h 0.3125 q 0.4375,0 1.6875,-0.4375 0.625,0.25 1.8125,0.25 l 0.625,-0.125 q 0.53125,0.1875 1.125,0.1875 v -0.0625 l 0.625,0.25 1.625,-0.3125 h 0.4375 L 78,61.490234 q 0,-0.09375 0.25,-0.1875 l 0.0625,0.0625 h 0.0625 l 0.375,-0.0625 q 1.4375,0.1875 1.4375,0.3125 h 0.25 l 0.0625,-0.0625 h 0.0625 q 0.0625,0.1875 0.375,0.1875 h 0.25 l 0.01563,-0.01563 z m 0,-29.046875 -0.265625,-0.07813 -1,0.3125 v -0.0625 l -0.8125,0.1875 -0.375,-0.0625 -0.25,0.0625 -0.1875,-0.1875 H 78.125 l -0.1875,0.1875 -0.5625,-0.125 -0.9375,0.125 q -0.21875,-0.1875 -0.9375,-0.25 l -0.3125,0.1875 -0.3125,-0.1875 -0.3125,0.0625 -0.25,-0.0625 -0.4375,0.0625 -1,-0.125 -1.0625,0.25 -0.875,-0.125 -0.375,0.0625 h -1 l -0.5625,0.1875 -0.4375,-0.125 -0.1875,0.0625 -0.4375,-0.125 H 67.875 l -0.0625,0.0625 -0.875,-0.1875 -0.25,0.0625 -0.625,-0.125 -0.75,0.1875 H 65.125 l -0.5,-0.125 -0.0625,0.0625 -0.5625,-0.0625 -0.25,0.125 -0.25,-0.125 h -0.6875 l -0.5,0.1875 H 62.25 l -0.0625,-0.0625 -1,0.25 -0.625,-0.3125 h -0.484375 v -1.75 l 0.671875,-0.0625 0.75,0.1875 q 0.796875,-0.171875 0.9375,-0.375 l 0.3125,0.1875 q 0.484375,0 0.9375,-0.4375 0.265625,0.0625 0.5,0.3125 1.0625,0.234375 1.0625,0.375 l 0.5,-0.125 0.0625,0.0625 h 0.0625 l 0.375,-0.125 0.6875,0.0625 1.875,-0.375 1.5625,0.1875 0.9375,-0.0625 0.0625,0.0625 0.25,-0.0625 h 0.75 l 0.8125,0.25 h 0.5 l 0.625,-0.1875 h 0.0625 q 0.828125,0 1.125,0.1875 l 0.4375,-0.125 1.25,0.125 q 0,-0.09375 0.875,-0.1875 l 0.5625,0.0625 h 0.75 q 1.640625,0 1.8125,-0.25 h 0.01563 z"
         style="fill:#ffffff"
         id="path917" />
      <path
         d="m 89.5,36.912109 0.15625,0.140625 H 90.5 q 0,0.390625 0.71875,0.71875 l 0.140625,0.859375 q -1.5625,0 -1.5625,1 l -0.296875,1 0.15625,0.140625 v 0.140625 l -0.4375,0.859375 0.140625,0.421875 -0.140625,0.4375 q 0,2.28125 0.71875,2.28125 l -0.140625,1 v 2.5625 l 0.28125,0.578125 -0.859375,2 0.859375,3.421875 v 1 L 89.9375,56.333984 q 0,0.28125 1.421875,1.421875 L 90.5,59.333984 Q 89.40625,59.193359 88.359375,58.474609 L 86.5,58.912109 q -0.59375,-0.390625 -1.84375,-0.578125 l -1,0.578125 h -0.859375 q -1.046875,0 -1.859375,-0.859375 v -0.296875 l 1.421875,-0.84375 0.578125,-1.296875 -0.140625,-1.28125 q 0,-0.71875 0.28125,-0.71875 l -0.28125,-2.421875 0.140625,-0.140625 v -0.140625 l -0.28125,-1.71875 v -2 l -0.140625,-0.140625 0.140625,-0.140625 v -0.28125 q 0,-0.71875 -0.296875,-0.71875 l 0.578125,-2.28125 -0.28125,-0.859375 0.28125,-2 q 0,-1.03125 -1.578125,-1.859375 l -0.140625,-1 v -0.140625 q 2.109375,-0.4375 5,-0.578125 l 0.140625,-0.140625 1.578125,0.140625 Q 89.5,37.115234 89.5,36.912109 Z m 3.609375,-2.125 -0.125,0.03125 -0.9375,-0.125 -0.0625,0.0625 h -0.0625 l -0.5,-0.1875 -1.0625,0.1875 -0.4375,-0.125 -0.0625,0.0625 h -0.0625 l -0.4375,-0.125 -1.3125,0.25 -0.4375,-0.1875 h -0.6875 q -0.6875,0.09375 -0.6875,0.25 -0.5625,-0.0625 -0.5625,-0.1875 -0.625,0.0625 -0.75,0.1875 -1.3125,-0.0625 -1.3125,-0.1875 l -0.1875,0.125 -0.375,-0.125 h -0.1875 l -0.1875,0.125 h -0.3125 l -0.6875,0.0625 -0.0625,-0.0625 h -0.0625 l -0.5625,0.0625 h -0.5 l -0.140625,-0.03125 v -2.015625 l 0.640625,0.109375 0.4375,-0.0625 0.0625,0.0625 h 0.0625 l 0.25,-0.0625 0.1875,0.0625 0.1875,-0.0625 1.875,0.1875 0.5625,-0.0625 h 0.25 l 0.0625,-0.0625 0.0625,0.0625 h 0.625 l 0.75,-0.1875 0.875,0.25 0.5625,-0.0625 h 0.0625 l 0.875,0.1875 0.5625,-0.1875 h 0.625 l 0.6875,-0.125 0.8125,0.125 h 0.25 l 0.375,-0.0625 0.3125,0.0625 h 0.125 l 0.0625,-0.0625 0.0625,0.0625 h 0.25 l 0.25,-0.0625 z m 0.04687,28.5 -0.46875,0.04687 -0.0625,-0.0625 h -0.0625 q -0.171875,0.125 -1,0.25 l -0.4375,-0.125 -0.375,0.0625 q -0.875,-0.0625 -0.875,-0.3125 -0.421875,0.375 -1,0.375 -1.1875,-0.1875 -2.4375,-0.1875 l -0.5,0.1875 H 85.75 q -0.328125,0 -0.5625,-0.1875 l -0.375,0.125 -0.375,-0.1875 -0.3125,0.1875 -0.0625,-0.0625 H 84 l -0.5,0.0625 q -0.203125,0 -0.5625,-0.25 h -0.5 l -0.25,-0.0625 -0.25,0.0625 -0.75,-0.125 q -0.375,0.375 -0.75,0.375 l -0.01563,-1.84375 q 0.484375,-0.09375 1.390625,-0.40625 0.625,0.25 1.8125,0.25 l 0.625,-0.125 q 0.53125,0.1875 1.125,0.1875 v -0.0625 l 0.625,0.25 1.625,-0.3125 h 0.4375 l 0.4375,0.0625 q 0,-0.09375 0.25,-0.1875 l 0.0625,0.0625 h 0.0625 l 0.375,-0.0625 q 1.4375,0.1875 1.4375,0.3125 h 0.25 L 91,61.521484 h 0.0625 q 0.0625,0.1875 0.375,0.1875 h 0.25 q 0.21875,-0.171875 1.46875,-0.359375 z"
         style="fill:#ffffff"
         id="path919" />
      <path
         d="m 100.3125,36.912109 0.42188,0.4375 h 0.85937 v 0.703125 q -0.92187,0.765625 -1.57812,2.875 l -0.14063,0.140625 0.28125,1.296875 -0.28125,0.578125 0.28125,2.578125 -0.14062,0.578125 v 1 l 0.14062,0.140625 -0.421875,1.296875 v 2.15625 l 0.140625,2 -0.140625,0.4375 q 0.859375,1.0625 0.859375,3.015625 l -0.14062,0.578125 q 1.0625,0.6875 1.14062,1.140625 0,1.15625 -1.4375,1.15625 l -3.4375,-1.15625 q 0,-0.3125 -1.296875,-1.4375 l -1.28125,-2.4375 0.140625,-0.140625 q -0.1875,-0.609375 -1.4375,-1.859375 v -0.15625 Q 92.875,51.115234 93.125,51.115234 L 92.984375,50.974609 V 50.833984 L 93.125,49.537109 92.84375,49.115234 v -1.4375 l 0.28125,-0.4375 v -1.421875 q 1.015625,-3.6875 1.4375,-4.453125 1.640625,-1.640625 2.15625,-2.734375 l 1.578125,-0.28125 -0.140625,-1 q 0.296875,-0.25 2.15625,-0.4375 z m 9.1875,0 q 0.375,0 0.70313,0.71875 l -0.14063,0.578125 0.14063,1.28125 -0.14063,0.15625 v 0.140625 l 0.57813,1.578125 v 0.421875 l -0.4375,1.875 0.15625,0.140625 v 0.140625 q -0.34375,1 -0.57813,1 l -1.29687,-0.140625 q -0.39063,-3.578125 -1.4375,-3.578125 -1.875,-2.453125 -2.85938,-2.453125 -1.15625,-0.53125 -1.15625,-1.28125 h 0.14063 l 0.15625,-0.140625 0.14062,0.140625 H 103.75 l 1.4375,-0.140625 q 0.90625,0.09375 1.71875,0.703125 h 0.85938 l 0.85937,-1 z m -0.4375,10.328125 q 1.45313,0 2.01563,1.15625 v 0.578125 l -0.57813,1.421875 0.14063,1.015625 q -0.4375,0.703125 -0.4375,1.859375 l 0.15625,1.15625 -0.15625,0.140625 v 0.140625 l 0.15625,0.4375 q 0,1.859375 -1.01563,1.859375 -1.54687,0.40625 -2.29687,1.296875 l -3.57813,1 q -1.15625,-0.15625 -1.15625,-0.71875 0,-0.890625 1.875,-1.578125 l 0.14063,-1 v -0.4375 q 0,-1.4375 -0.28125,-1.4375 l 0.14062,-0.140625 v -1.71875 l -0.14062,-0.140625 0.28125,-1.015625 q 0,-1.484375 -2.01563,-2.140625 v -0.296875 l 0.71875,-0.71875 h 0.85938 l 2.29687,-0.28125 1.4375,0.28125 h 0.4375 q 0.79688,0 1,-0.71875 z m 4.34375,-12.390625 q -0.10937,0.01563 -0.23437,0.03125 l -0.375,-0.0625 -0.375,0.125 -0.1875,-0.0625 -0.375,0.125 q 0,-0.3125 -0.875,-0.375 l -1.0625,0.25 h -0.5 l -0.5625,-0.0625 h -0.0625 l -0.0625,0.0625 -0.6875,-0.0625 h -0.3125 l -0.1875,-0.125 h -0.1875 l -0.375,0.125 -0.1875,-0.125 q 0,0.125 -1.3125,0.1875 -0.125,-0.125 -0.75,-0.1875 0,0.125 -0.5625,0.1875 0,-0.15625 -0.6875,-0.25 h -0.6875 l -0.4375,0.1875 -1.3125,-0.25 -0.4375,0.125 h -0.0625 l -0.0625,-0.0625 -0.4375,0.125 -1.062505,-0.1875 -0.5,0.1875 h -0.0625 l -0.0625,-0.0625 -0.9375,0.125 -0.875,-0.25 -1.25,0.25 -1.1875,-0.0625 -0.5,0.0625 q 0,-0.109375 -0.625,-0.125 h -0.4375 l -0.125,-0.125 v -0.125 l 0.125,-0.5 v -0.1875 l -0.125,-0.1875 v -0.25 q 0,-0.4375 0.5,-0.5 1.203125,0.0625 1.3125,0.1875 h 0.0625 l 0.0625,-0.0625 0.25,0.125 q 0,-0.234375 1.875,-0.3125 l 1.0625,0.25 h 0.25 l 0.0625,-0.0625 0.0625,0.0625 h 0.125 l 0.3125,-0.0625 0.375,0.0625 h 0.25 l 0.8125,-0.125 0.687505,0.125 h 0.625 l 0.5625,0.1875 0.875,-0.1875 h 0.0625 l 0.5625,0.0625 0.875,-0.25 0.75,0.1875 h 0.625 l 0.0625,-0.0625 0.0625,0.0625 h 0.25 l 0.5625,0.0625 1.875,-0.1875 0.1875,0.0625 0.1875,-0.0625 0.25,0.0625 h 0.0625 l 0.0625,-0.0625 0.4375,0.0625 0.75,-0.125 1,0.125 0.9375,-0.25 1.29687,0.203125 z m 0.0469,28.40625 -0.54688,-0.04687 -1.875,0.375 -1.5625,-0.1875 -0.9375,0.0625 -0.0625,-0.0625 -0.25,0.0625 h -0.75 l -0.8125,-0.25 h -0.5 l -0.625,0.1875 h -0.0625 q -0.82812,0 -1.125,-0.1875 l -0.4375,0.125 -1.25,-0.125 q 0,0.09375 -0.875,0.1875 l -0.5625,-0.0625 h -0.75 q -1.640625,0 -1.8125,0.25 h -0.3125 l -1.875,-0.3125 -0.375,0.0625 -0.6875,-0.125 -1.125,0.125 h -0.25 l -0.9375,0.25 q -0.6875,0 -0.875,-0.5 0.3125,-0.46875 0.3125,-1 l -0.0625,-0.25 q 0,-0.4375 0.875,-0.4375 l 1.3125,0.1875 q 0.234375,-0.1875 0.5625,-0.1875 h 0.25 q 0.3125,0 0.375,0.1875 l 1.75,-0.1875 1.3125,0.375 1,-0.3125 v 0.0625 l 0.8125,-0.1875 0.375,0.0625 0.25,-0.0625 0.1875,0.1875 h 0.1875 l 0.1875,-0.1875 0.5625,0.125 0.9375,-0.125 q 0.21875,0.1875 0.9375,0.25 l 0.3125,-0.1875 0.3125,0.1875 0.3125,-0.0625 0.25,0.0625 0.4375,-0.0625 1,0.125 1.0625,-0.25 0.875,0.125 0.375,-0.0625 h 1 l 0.5625,-0.1875 0.4375,0.125 0.1875,-0.0625 0.4375,0.125 h 0.0625 l 0.0625,-0.0625 0.875,0.1875 0.25,-0.0625 0.29688,0.0625 z"
         style="fill:#ffffff"
         id="path921" />
      <path
         d="m 121.75,36.912109 0.15625,0.140625 H 122.75 q 0,0.390625 0.71875,0.71875 l 0.14063,0.859375 q -1.5625,0 -1.5625,1 l -0.29688,1 0.15625,0.140625 v 0.140625 l -0.4375,0.859375 0.14063,0.421875 -0.14063,0.4375 q 0,2.28125 0.71875,2.28125 l -0.14062,1 v 2.5625 l 0.28125,0.578125 -0.85938,2 0.85938,3.421875 v 1 l -0.14063,0.859375 q 0,0.28125 1.42188,1.421875 L 122.75,59.333984 q -1.09375,-0.140625 -2.14062,-0.859375 l -1.85938,0.4375 q -0.59375,-0.390625 -1.84375,-0.578125 l -1,0.578125 h -0.85937 q -1.04688,0 -1.85938,-0.859375 v -0.296875 l 1.42188,-0.84375 0.57812,-1.296875 -0.14062,-1.28125 q 0,-0.71875 0.28125,-0.71875 l -0.28125,-2.421875 0.14062,-0.140625 v -0.140625 l -0.28125,-1.71875 v -2 l -0.14062,-0.140625 0.14062,-0.140625 v -0.28125 q 0,-0.71875 -0.29687,-0.71875 l 0.57812,-2.28125 -0.28125,-0.859375 0.28125,-2 q 0,-1.03125 -1.57812,-1.859375 l -0.14063,-1 v -0.140625 q 2.10938,-0.4375 5,-0.578125 l 0.14063,-0.140625 1.57812,0.140625 q 1.5625,-0.07813 1.5625,-0.28125 z m 3.60938,-2.125 -0.125,0.03125 -0.9375,-0.125 -0.0625,0.0625 h -0.0625 l -0.5,-0.1875 -1.0625,0.1875 -0.4375,-0.125 -0.0625,0.0625 h -0.0625 l -0.4375,-0.125 -1.3125,0.25 -0.4375,-0.1875 h -0.6875 q -0.6875,0.09375 -0.6875,0.25 -0.5625,-0.0625 -0.5625,-0.1875 -0.625,0.0625 -0.75,0.1875 -1.3125,-0.0625 -1.3125,-0.1875 l -0.1875,0.125 -0.375,-0.125 h -0.1875 l -0.1875,0.125 h -0.3125 l -0.6875,0.0625 -0.0625,-0.0625 h -0.0625 l -0.5625,0.0625 h -0.5 l -0.14063,-0.03125 v -2.015625 l 0.64063,0.109375 0.4375,-0.0625 0.0625,0.0625 h 0.0625 l 0.25,-0.0625 0.1875,0.0625 0.1875,-0.0625 1.875,0.1875 0.5625,-0.0625 h 0.25 l 0.0625,-0.0625 0.0625,0.0625 h 0.625 l 0.75,-0.1875 0.875,0.25 0.5625,-0.0625 h 0.0625 l 0.875,0.1875 0.5625,-0.1875 h 0.625 l 0.6875,-0.125 0.8125,0.125 h 0.25 l 0.375,-0.0625 0.3125,0.0625 h 0.125 l 0.0625,-0.0625 0.0625,0.0625 h 0.25 l 0.25,-0.0625 z m 0.0469,28.5 -0.46875,0.04687 -0.0625,-0.0625 h -0.0625 q -0.17187,0.125 -1,0.25 l -0.4375,-0.125 -0.375,0.0625 q -0.875,-0.0625 -0.875,-0.3125 -0.42187,0.375 -1,0.375 -1.1875,-0.1875 -2.4375,-0.1875 l -0.5,0.1875 H 118 q -0.32812,0 -0.5625,-0.1875 l -0.375,0.125 -0.375,-0.1875 -0.3125,0.1875 -0.0625,-0.0625 H 116.25 l -0.5,0.0625 q -0.20312,0 -0.5625,-0.25 h -0.5 l -0.25,-0.0625 -0.25,0.0625 -0.75,-0.125 q -0.375,0.375 -0.75,0.375 l -0.0156,-1.84375 q 0.48437,-0.09375 1.39062,-0.40625 0.625,0.25 1.8125,0.25 l 0.625,-0.125 q 0.53125,0.1875 1.125,0.1875 v -0.0625 l 0.625,0.25 1.625,-0.3125 h 0.4375 l 0.4375,0.0625 q 0,-0.09375 0.25,-0.1875 l 0.0625,0.0625 h 0.0625 l 0.375,-0.0625 q 1.4375,0.1875 1.4375,0.3125 h 0.25 l 0.0625,-0.0625 h 0.0625 q 0.0625,0.1875 0.375,0.1875 h 0.25 q 0.21875,-0.171875 1.46875,-0.359375 z"
         style="fill:#ffffff"
         id="path923" />
      <path
         d="m 127.29688,36.912109 q 3.28124,0.375 3.28124,0.5625 L 131,37.333984 q 0.8125,0.4375 1.70312,0.4375 L 133,37.474609 h 0.5625 l 1.28125,-0.140625 q 1,0.203125 1,1.4375 l -0.14063,0.421875 H 135.125 q -1.125,0 -1.125,2.984375 v 0.296875 l 0.14062,1.703125 H 134 q 0.42187,0.578125 0.5625,2.28125 0,0.421875 -0.42188,0.421875 L 134,47.037109 v 0.140625 l 0.14062,0.703125 -0.14062,0.4375 0.14062,1.28125 v 1.140625 q 0.0312,0.703125 0.28125,0.703125 L 133.5625,54.865234 134,55.724609 h -0.15625 l 0.57812,2.421875 H 134 q -0.60938,0 -1.4375,0.71875 h -0.14063 q -0.8125,0 -1.5625,-0.578125 h -0.71875 L 129,58.568359 l -2.42187,-0.28125 -0.85938,0.140625 -0.28125,-0.421875 v -0.28125 q 0,-0.359375 1.57813,-0.859375 l 0.28125,-1.28125 q 0,-1.046875 -0.4375,-1.859375 0.0937,-1.375 0.71875,-2.28125 l -0.14063,-0.5625 0.14063,-0.4375 -0.42188,-0.84375 0.28125,-2.421875 q 0,-1.84375 -0.42187,-3.28125 l 0.42187,-0.578125 v -0.140625 l -0.42187,-0.421875 0.14062,-0.140625 v -1 l -0.14062,-0.859375 0.14062,-0.140625 v -0.140625 q 0,-1.859375 -1.85937,-1.859375 l -0.14063,-0.140625 v -0.28125 q 1.14063,-1.28125 2.14063,-1.28125 z m 13.10937,14.53125 q 1.28125,0.34375 1.28125,1.71875 v 1 q -0.71875,0 -0.71875,0.84375 l 0.71875,2.859375 v 0.140625 q 0,0.9375 -0.5625,1.28125 l -1.4375,-1 -3.42188,0.28125 q -0.84375,0 -0.84375,-0.84375 v -0.296875 q 0,-0.203125 1.70313,-0.703125 0,-0.578125 0.71875,-1.140625 l 1,-1 0.14062,-0.5625 -0.14062,-0.15625 v -0.140625 l 0.70312,-1 q 0.0781,-1.28125 0.85938,-1.28125 z m 3.54687,-16.890625 q -0.375,0.21875 -1.07812,0.21875 l -0.5625,-0.125 q -0.4375,0 -0.6875,0.125 l -0.6875,-0.0625 h -0.5625 l -0.0625,0.0625 -0.5,-0.125 -0.25,0.0625 -0.1875,-0.0625 -0.375,0.1875 -1,-0.1875 -1.25,0.0625 q -0.8125,0 -1.3125,-0.1875 -0.64063,0.4375 -0.875,0.4375 h -0.1875 l -1.1875,-0.25 h -0.875 l -0.4375,0.125 -1.0625,-0.125 q -0.29688,0 -0.9375,0.3125 -0.29688,0 -0.875,-0.4375 h -0.125 l -0.1875,0.1875 h -0.0625 v -0.125 h -0.0625 q -0.23438,0.25 -0.4375,0.25 l -0.5,-0.0625 -0.0625,0.0625 q -0.0625,-0.1875 -0.375,-0.1875 -0.9375,0.01563 -0.9375,0.125 l -0.6875,-0.1875 -0.375,0.0625 h -0.0625 q -0.1875,0 -0.25,-0.8125 h -0.0625 q 0.0625,-1.0625 0.6875,-1.0625 l 0.5625,-0.125 q 0,0.125 0.1875,0.125 l 0.5,-0.0625 v 0.0625 q 0.57813,-0.07813 0.8125,-0.25 0.60937,0.125 0.875,0.375 l 0.25,-0.0625 0.1875,0.0625 0.5,-0.0625 0.0625,0.0625 0.3125,-0.0625 h 0.1875 l 0.875,0.0625 0.0625,-0.0625 h 0.0625 l 0.375,0.125 1.125,-0.1875 h 0.1875 l 0.5,0.125 h 0.3125 q 0.45312,0 1.125,-0.1875 l 0.1875,0.0625 0.875,-0.0625 h 0.25 l 1,0.25 q 1.10937,-0.3125 1.5,-0.3125 0,0.1875 0.25,0.1875 l 0.375,-0.0625 0.5,0.0625 0.0625,-0.0625 0.0625,0.0625 h 0.0625 q 1.14062,0 2.4375,-0.25 l 0.6875,0.25 0.8125,-0.125 0.32812,0.04687 z m 0,28.78125 q -0.21875,-0.0625 -0.57812,-0.09375 l -1.0625,0.25 h -0.5 l -0.5625,-0.0625 h -0.0625 l -0.0625,0.0625 -0.6875,-0.0625 h -0.3125 l -0.1875,-0.125 H 139.75 l -0.375,0.125 -0.1875,-0.125 q 0,0.125 -1.3125,0.1875 -0.125,-0.125 -0.75,-0.1875 0,0.125 -0.5625,0.1875 0,-0.15625 -0.6875,-0.25 h -0.6875 l -0.4375,0.1875 -1.3125,-0.25 -0.4375,0.125 h -0.0625 l -0.0625,-0.0625 -0.4375,0.125 -1.0625,-0.1875 -0.5,0.1875 h -0.0625 l -0.0625,-0.0625 -0.9375,0.125 -0.875,-0.25 -1.25,0.25 -1.1875,-0.0625 -0.5,0.0625 q 0,-0.109375 -0.625,-0.125 h -0.4375 l -0.125,-0.125 v -0.125 l 0.125,-0.5 v -0.1875 l -0.125,-0.1875 v -0.25 q 0,-0.4375 0.5,-0.5 1.20313,0.0625 1.3125,0.1875 h 0.0625 l 0.0625,-0.0625 0.25,0.125 q 0,-0.234375 1.875,-0.3125 l 1.0625,0.25 h 0.25 l 0.0625,-0.0625 0.0625,0.0625 h 0.125 l 0.3125,-0.0625 0.375,0.0625 h 0.25 l 0.8125,-0.125 0.6875,0.125 h 0.625 l 0.5625,0.1875 0.875,-0.1875 H 135 l 0.5625,0.0625 0.875,-0.25 0.75,0.1875 h 0.625 l 0.0625,-0.0625 0.0625,0.0625 h 0.25 l 0.5625,0.0625 1.875,-0.1875 0.1875,0.0625 0.1875,-0.0625 0.25,0.0625 h 0.0625 l 0.0625,-0.0625 0.4375,0.0625 0.75,-0.125 1,0.125 0.39062,-0.109375 z"
         style="fill:#4d4d4d"
         id="path925" />
      <path
         d="m 157.39062,36.958984 0.14063,0.140625 0.29687,0.28125 h 0.14063 l -0.28125,1.15625 0.57812,1.59375 0.57813,0.578125 v 3.03125 q 0.42187,0.390625 1.14062,3.46875 l 0.57813,0.578125 -0.14063,0.140625 v 0.578125 l 0.14063,0.578125 -0.14063,0.578125 0.875,2.59375 h -0.15625 l 0.4375,0.71875 -0.4375,0.734375 q 0.5,0 0.875,1.734375 l -0.14062,1 q 0,0.4375 1.29687,0.875 l 0.42188,1.15625 -0.57813,0.421875 H 162.875 l -0.42188,-0.28125 h -0.29687 l -1.875,0.578125 h -0.14063 l -0.57812,-0.140625 -0.57813,0.140625 h -0.29687 l -0.71875,-0.4375 -3.03125,0.4375 q -0.75,0 -1.15625,-0.71875 v -0.15625 q 0.875,-0.53125 0.875,-1.875 l -0.29688,-1 0.14063,-0.15625 -0.28125,-1.296875 0.14062,-0.140625 v -0.578125 h -1.29687 l -1.15625,0.28125 q -0.375,-0.28125 -1.4375,-0.28125 l -0.15625,-0.140625 v -1.3125 q 0,-0.28125 0.875,-0.421875 l 0.57812,0.578125 h 1 l 0.73438,-0.15625 -0.4375,-2.453125 0.14062,-0.859375 q -0.4375,0 -1.01562,-3.171875 l 0.15625,-0.4375 -1.29688,-4.625 0.14063,-0.421875 -0.14063,-1.3125 q 0.10938,-0.859375 0.85938,-0.859375 l 0.71875,0.140625 z m -6.92187,4.90625 h 0.14062 l 0.14063,0.4375 -0.14063,0.421875 0.14063,1.453125 q 0,1.890625 -0.85938,3.03125 0,1.8125 -1.15625,4.046875 l 0.14063,0.421875 -0.14063,1.015625 0.14063,1.015625 -0.4375,0.140625 0.14062,0.859375 -0.42187,1.15625 v 0.140625 q 0,1.265625 1.875,1.453125 h 0.28125 v 0.140625 q 0,1.734375 -1,1.734375 h -1.73438 q -0.48437,0 -1.01562,-0.4375 l -2.01563,0.4375 q -0.5625,0 -1.01562,-1.59375 v -0.28125 q 1.73437,0 1.73437,-1.59375 1.32813,-1.328125 2.45313,-4.609375 l -0.14063,-0.4375 1.57813,-5.34375 0.29687,-0.296875 -0.14062,-0.421875 q 0,-1.765625 1.15625,-2.890625 z m 15.23437,-7.203125 q -0.35937,-0.109375 -0.35937,-0.1875 l -0.5,0.125 -0.0625,-0.0625 h -0.0625 l -0.375,0.125 -0.6875,-0.0625 -1.875,0.375 -1.5625,-0.1875 -0.9375,0.0625 -0.0625,-0.0625 -0.25,0.0625 h -0.75 l -0.8125,-0.25 h -0.5 l -0.625,0.1875 h -0.0625 q -0.82813,0 -1.125,-0.1875 l -0.4375,0.125 -1.25,-0.125 q 0,0.09375 -0.875,0.1875 l -0.5625,-0.0625 h -0.75 q -1.64063,0 -1.8125,0.25 h -0.3125 l -1.875,-0.3125 -0.375,0.0625 -0.6875,-0.125 -1.125,0.125 h -0.25 l -0.9375,0.25 q -0.6875,0 -0.875,-0.5 0.3125,-0.46875 0.3125,-1 l -0.0625,-0.25 q 0,-0.4375 0.875,-0.4375 l 1.3125,0.1875 q 0.23437,-0.1875 0.5625,-0.1875 h 0.25 q 0.3125,0 0.375,0.1875 l 1.75,-0.1875 1.3125,0.375 1,-0.3125 v 0.0625 l 0.8125,-0.1875 0.375,0.0625 0.25,-0.0625 0.1875,0.1875 h 0.1875 l 0.1875,-0.1875 0.5625,0.125 0.9375,-0.125 q 0.21875,0.1875 0.9375,0.25 l 0.3125,-0.1875 0.3125,0.1875 0.3125,-0.0625 0.25,0.0625 0.4375,-0.0625 1,0.125 1.0625,-0.25 0.875,0.125 0.375,-0.0625 h 1 l 0.5625,-0.1875 0.4375,0.125 0.1875,-0.0625 0.4375,0.125 h 0.0625 l 0.0625,-0.0625 0.875,0.1875 0.25,-0.0625 0.625,0.125 0.75,-0.1875 h 0.1875 l 0.23437,0.0625 z m 0,28.71875 -0.21875,-0.0625 -1.75,0.25 -0.0625,-0.0625 -0.3125,0.0625 -0.375,-0.0625 -0.9375,0.125 q -0.48437,0 -1.125,-0.1875 h -0.0625 q -0.23437,0.1875 -0.4375,0.1875 h -0.1875 q -0.375,0 -0.75,-0.375 l -0.75,0.125 -0.25,-0.0625 -0.25,0.0625 h -0.5 q -0.35937,0.25 -0.5625,0.25 l -0.5,-0.0625 h -0.0625 l -0.0625,0.0625 -0.3125,-0.1875 -0.375,0.1875 -0.375,-0.125 q -0.23437,0.1875 -0.5625,0.1875 h -0.1875 l -0.5,-0.1875 q -1.25,0 -2.4375,0.1875 -0.57812,0 -1,-0.375 0,0.25 -0.875,0.3125 l -0.375,-0.0625 -0.4375,0.125 q -0.82812,-0.125 -1,-0.25 h -0.0625 l -0.0625,0.0625 -1.375,-0.125 q -0.79687,0 -1,0.25 h -0.125 l -0.25,-0.1875 -0.375,0.125 -0.0625,-0.0625 h -0.1875 q -0.39062,0.125 -1.5,0.1875 l -0.4375,-0.25 v -0.0625 l 0.0625,-0.0625 q 0.25,-0.09375 0.25,-0.1875 v -0.0625 l -0.1875,-0.1875 0.125,-0.4375 v -0.0625 q 0,-0.125 -0.1875,-0.125 v -0.25 l 0.25,-0.4375 q 0.71875,0 1.25,0.1875 0.71875,0 0.9375,-0.25 h 0.3125 l 1.0625,0.1875 h 0.1875 l 0.6875,-0.1875 q 1.32813,0.203125 1.5625,0.375 h 0.25 q 0.3125,0 0.375,-0.1875 h 0.0625 l 0.0625,0.0625 h 0.25 q 0,-0.125 1.4375,-0.3125 l 0.375,0.0625 h 0.0625 l 0.0625,-0.0625 q 0.25,0.09375 0.25,0.1875 l 0.4375,-0.0625 h 0.4375 l 1.625,0.3125 0.625,-0.25 v 0.0625 q 0.59375,0 1.125,-0.1875 l 0.625,0.125 q 1.1875,0 1.8125,-0.25 1.25,0.4375 1.6875,0.4375 h 0.3125 q 0.75,-0.25 1.4375,-0.3125 l 0.1875,0.1875 h 0.1875 v -0.125 h 0.1875 q 0,0.1875 0.3125,0.1875 h 0.125 l 0.0625,-0.0625 0.3125,0.1875 h 0.1875 q 0.125,-0.125 0.5,-0.125 l 0.3125,-0.3125 1.03125,0.265625 z"
         style="fill:#4d4d4d"
         id="path927" />
      <path
         d="m 166.25,36.912109 q 1.60937,0 2.60937,0.71875 0.65625,0 1.29688,-0.4375 H 171.75 q 3.75,0.421875 3.75,1.15625 0,1.625 1.875,2.609375 0.85937,1.578125 1.15625,3.3125 l 0.71875,1.296875 -0.14063,0.15625 v 0.421875 q 3.75,4.046875 3.75,5.921875 l -0.14062,0.140625 v 0.15625 l 0.14062,0.71875 -0.14062,1.15625 q 0.57812,0 0.57812,1.578125 0,1.59375 -0.4375,1.734375 L 183,57.693359 v 0.4375 l -0.28125,0.4375 0.14062,0.4375 h -0.14062 l -0.73438,0.28125 q -4.60937,-0.953125 -4.60937,-2.59375 -0.5,0 -0.875,-1.734375 -0.28125,0 -0.28125,-0.578125 -0.71875,0 -0.71875,-1.453125 -1.875,-1.71875 -1.875,-3.03125 -0.21875,0 -1.3125,-2.453125 -0.375,0 -1,-2.015625 -0.89063,-0.234375 -1.875,-3.609375 -2.625,-3.3125 -3.32813,-3.3125 -0.42187,0 -0.71875,-0.578125 0.85938,-0.734375 0.85938,-1.015625 z m 14.29687,0.4375 q 0.79688,0 2.45313,0.578125 h 0.14062 l 0.57813,-0.4375 h 0.57812 q 1.09375,0 1.29688,0.859375 0,0.578125 -0.85938,0.734375 0,0.234375 -1.4375,1.296875 l -0.15625,1.15625 0.15625,2.15625 -0.57812,4.328125 v 0.734375 q -1.15625,-0.671875 -1.15625,-2.171875 l 0.42187,-1.4375 q -0.42187,-0.765625 -0.57812,-2.453125 l 0.29687,-1.15625 q 0,-0.34375 -1.01562,-1.015625 l -0.14063,-0.578125 0.14063,-0.140625 v -0.875 l -1,-0.859375 v -0.578125 z m -11.98437,5.484375 q 0.5,0.75 1.29687,3.46875 v 1.71875 l -0.28125,0.578125 0.57813,2.453125 v 0.15625 q 0,1.203125 -0.57813,3.453125 0.28125,0 0.71875,2.03125 l 0.14063,0.140625 h 0.15625 l 0.14062,-0.140625 h 0.14063 q 1.15625,0.375 1.15625,0.71875 v 0.71875 l -0.28125,0.875 -3.1875,-0.296875 q -0.85938,0.04687 -0.85938,0.296875 l -0.57812,-0.296875 -0.875,0.140625 -0.28125,-0.28125 v -0.71875 q 1.73437,-0.953125 1.73437,-2.453125 l 0.28125,-0.4375 -0.14062,-1.015625 1.01562,-1.875 v -0.71875 l -1.01562,-3.03125 0.14062,-2.171875 h -0.14062 l 0.14062,-0.140625 v -2.015625 l 0.15625,-0.15625 -0.15625,-0.140625 v -0.140625 q 0.28125,-0.65625 0.57813,-0.71875 z m 18.96875,-8.09375 -0.53125,0.140625 -0.3125,-0.3125 q -0.375,0 -0.5,-0.125 H 186 l -0.3125,0.1875 -0.0625,-0.0625 H 185.5 q -0.3125,0 -0.3125,0.1875 H 185 v -0.125 h -0.1875 l -0.1875,0.1875 q -0.6875,-0.0625 -1.4375,-0.3125 h -0.3125 q -0.4375,0 -1.6875,0.4375 -0.625,-0.25 -1.8125,-0.25 l -0.625,0.125 q -0.53125,-0.1875 -1.125,-0.1875 v 0.0625 l -0.625,-0.25 -1.625,0.3125 h -0.4375 l -0.4375,-0.0625 q 0,0.09375 -0.25,0.1875 l -0.0625,-0.0625 h -0.0625 l -0.375,0.0625 q -1.4375,-0.1875 -1.4375,-0.3125 h -0.25 L 172,34.630859 h -0.0625 q -0.0625,-0.1875 -0.375,-0.1875 h -0.25 q -0.23438,0.171875 -1.5625,0.375 l -0.6875,-0.1875 h -0.1875 l -1.0625,0.1875 H 167.5 q -0.21875,-0.25 -0.9375,-0.25 -0.53125,0.1875 -1.25,0.1875 l -0.25,-0.4375 v -0.25 q 0.1875,0 0.1875,-0.125 v -0.0625 l -0.125,-0.4375 0.1875,-0.1875 v -0.0625 q 0,-0.09375 -0.25,-0.1875 L 165,32.943359 v -0.0625 l 0.4375,-0.25 q 1.10937,0.0625 1.5,0.1875 h 0.1875 l 0.0625,-0.0625 0.375,0.125 0.25,-0.1875 h 0.125 q 0.20312,0.25 1,0.25 l 1.375,-0.125 0.0625,0.0625 h 0.0625 q 0.17187,-0.125 1,-0.25 l 0.4375,0.125 0.375,-0.0625 q 0.875,0.0625 0.875,0.3125 0.42187,-0.375 1,-0.375 1.1875,0.1875 2.4375,0.1875 l 0.5,-0.1875 h 0.1875 q 0.32812,0 0.5625,0.1875 l 0.375,-0.125 0.375,0.1875 0.3125,-0.1875 0.0625,0.0625 H 179 l 0.5,-0.0625 q 0.20312,0 0.5625,0.25 h 0.5 l 0.25,0.0625 0.25,-0.0625 0.75,0.125 q 0.375,-0.375 0.75,-0.375 h 0.1875 q 0.20312,0 0.4375,0.1875 h 0.0625 q 0.64062,-0.1875 1.125,-0.1875 l 0.9375,0.125 0.375,-0.0625 0.3125,0.0625 0.0625,-0.0625 1.46875,0.203125 z m 0,28.765625 -0.21875,0.0625 h -0.1875 l -0.75,-0.1875 -0.625,0.125 -0.25,-0.0625 -0.875,0.1875 -0.0625,-0.0625 H 184.5 l -0.4375,0.125 -0.1875,-0.0625 -0.4375,0.125 -0.5625,-0.1875 h -1 l -0.375,-0.0625 -0.875,0.125 -1.0625,-0.25 -1,0.125 -0.4375,-0.0625 -0.25,0.0625 -0.3125,-0.0625 -0.3125,0.1875 -0.3125,-0.1875 q -0.71875,0.0625 -0.9375,0.25 l -0.9375,-0.125 -0.5625,0.125 -0.1875,-0.1875 h -0.1875 l -0.1875,0.1875 -0.25,-0.0625 -0.375,0.0625 -0.8125,-0.1875 v 0.0625 l -1,-0.3125 -1.3125,0.375 -1.75,-0.1875 q -0.0625,0.1875 -0.375,0.1875 h -0.25 q -0.32813,0 -0.5625,-0.1875 l -1.3125,0.1875 q -0.875,0 -0.875,-0.4375 l 0.0625,-0.25 q 0,-0.53125 -0.3125,-1 0.1875,-0.5 0.875,-0.5 l 0.9375,0.25 h 0.25 l 1.125,0.125 0.6875,-0.125 0.375,0.0625 1.875,-0.3125 h 0.3125 q 0.17187,0.25 1.8125,0.25 h 0.75 l 0.5625,-0.0625 q 0.875,0.09375 0.875,0.1875 l 1.25,-0.125 0.4375,0.125 q 0.29687,-0.1875 1.125,-0.1875 h 0.0625 l 0.625,0.1875 h 0.5 l 0.8125,-0.25 h 0.75 l 0.25,0.0625 0.0625,-0.0625 0.9375,0.0625 1.5625,-0.1875 1.875,0.375 0.6875,-0.0625 0.375,0.125 h 0.0625 l 0.0625,-0.0625 0.5,0.125 q 0,-0.07813 0.34375,-0.1875 z"
         style="fill:#4d4d4d"
         id="path929" />
      <path
         d="m 188.60937,36.912109 1.17188,0.140625 1.01562,-0.140625 q 1.4375,0 1.60938,1.90625 l -1.45313,0.875 v 0.28125 q 0,1.375 -0.875,2.203125 0,2.921875 -1.03125,2.921875 h -0.4375 q -0.53125,0 -0.875,-2.046875 l 0.14063,-0.15625 v -0.140625 l -0.14063,-0.875 0.14063,-2.046875 -0.14063,-0.140625 v -0.15625 l 0.14063,-0.4375 q -0.32813,0 -0.57813,-1.75 0,-0.4375 1.3125,-0.4375 z M 201.75,34.818359 q -0.0469,0.01563 -0.0781,0.01563 -1.20312,-0.0625 -1.3125,-0.1875 h -0.0625 l -0.0625,0.0625 -0.25,-0.125 q 0,0.234375 -1.875,0.3125 l -1.0625,-0.25 h -0.25 l -0.0625,0.0625 -0.0625,-0.0625 h -0.125 l -0.3125,0.0625 -0.375,-0.0625 h -0.25 l -0.8125,0.125 -0.6875,-0.125 h -0.625 l -0.5625,-0.1875 -0.875,0.1875 h -0.0625 l -0.5625,-0.0625 -0.875,0.25 -0.75,-0.1875 h -0.625 l -0.0625,0.0625 -0.0625,-0.0625 h -0.25 l -0.5625,-0.0625 -1.35937,0.140625 v -1.875 l 0.17187,0.109375 h 0.1875 l 0.375,-0.125 0.1875,0.125 q 0,-0.125 1.3125,-0.1875 0.125,0.125 0.75,0.1875 0,-0.125 0.5625,-0.1875 0,0.15625 0.6875,0.25 h 0.6875 l 0.4375,-0.1875 1.3125,0.25 0.4375,-0.125 h 0.0625 l 0.0625,0.0625 0.4375,-0.125 1.0625,0.1875 0.5,-0.1875 h 0.0625 l 0.0625,0.0625 0.9375,-0.125 0.875,0.25 1.25,-0.25 1.1875,0.0625 0.5,-0.0625 q 0,0.109375 0.625,0.125 h 0.0312 l 0.10938,-0.1875 q 0.71875,0 1.25,0.1875 0.71875,0 0.9375,-0.25 h 0.3125 l 1.0625,0.1875 H 205.5 l 0.6875,-0.1875 q 1.32812,0.203125 1.5625,0.375 H 208 q 0.3125,0 0.375,-0.1875 h 0.0625 l 0.0625,0.0625 h 0.25 v 1.875 h -0.0625 l -0.375,-0.0625 -0.4375,0.125 q -0.82813,-0.125 -1,-0.25 h -0.0625 l -0.0625,0.0625 -1.375,-0.125 q -0.79688,0 -1,0.25 h -0.125 l -0.25,-0.1875 -0.375,0.125 -0.0625,-0.0625 h -0.1875 q -0.39063,0.125 -1.5,0.1875 z m -0.15625,28.421875 h -0.0625 l -0.5625,0.125 q 0,-0.125 -0.1875,-0.125 l -0.5,0.0625 v -0.0625 q -0.57813,0.07813 -0.8125,0.25 -0.60938,-0.125 -0.875,-0.375 l -0.25,0.0625 -0.1875,-0.0625 -0.5,0.0625 -0.0625,-0.0625 -0.3125,0.0625 h -0.1875 l -0.875,-0.0625 -0.0625,0.0625 h -0.0625 l -0.375,-0.125 -1.125,0.1875 h -0.1875 l -0.5,-0.125 h -0.3125 q -0.45313,0 -1.125,0.1875 l -0.1875,-0.0625 -0.875,0.0625 h -0.25 l -1,-0.25 q -1.10938,0.3125 -1.5,0.3125 0,-0.1875 -0.25,-0.1875 l -0.375,0.0625 -0.5,-0.0625 -0.0625,0.0625 -0.0625,-0.0625 h -0.0625 q -0.23438,0 -0.46875,0.01563 v -1.859375 l 0.34375,0.09375 0.25,-0.0625 0.1875,0.0625 0.375,-0.1875 1,0.1875 1.25,-0.0625 q 0.8125,0 1.3125,0.1875 0.64062,-0.4375 0.875,-0.4375 h 0.1875 l 1.1875,0.25 h 0.875 l 0.4375,-0.125 1.0625,0.125 q 0.29687,0 0.9375,-0.3125 0.3125,0 0.875,0.4375 h 0.125 l 0.1875,-0.1875 h 0.0625 v 0.125 h 0.0625 q 0.25,-0.25 0.4375,-0.25 l 0.5,0.0625 0.0625,-0.0625 q 0.0625,0.1875 0.375,0.1875 0.9375,-0.01563 0.9375,-0.125 l 0.6875,0.1875 0.375,-0.0625 h 0.0937 q 0.10937,-0.01563 0.25,-0.01563 l 0.9375,0.25 h 0.25 l 1.125,0.125 0.6875,-0.125 0.375,0.0625 1.875,-0.3125 h 0.3125 q 0.125,0.171875 1,0.234375 v 1.8125 l -0.75,-0.234375 -1.3125,0.375 -1.75,-0.1875 q -0.0625,0.1875 -0.375,0.1875 h -0.25 q -0.32813,0 -0.5625,-0.1875 l -1.3125,0.1875 q -0.71875,0 -0.84375,-0.296875 z m 1.78125,-26.1875 h 2.1875 q 0.73437,1.40625 0.73437,3.078125 -0.4375,0.765625 -0.4375,2.046875 l 0.29688,0.578125 -0.59375,2.34375 h -0.73438 q -0.4375,0 -0.71875,-1.609375 l 0.28125,-0.296875 q 0,-2.671875 -1.3125,-3.359375 0,-0.875 -1.01562,-0.875 l -0.15625,-0.140625 v -0.15625 l 0.29687,-0.578125 -0.14062,-0.734375 z m -5.5625,0 0.59375,0.15625 0.73437,-0.15625 q 0.71875,0 1.45313,0.734375 l -0.14063,2.78125 0.14063,1.3125 -0.29688,0.734375 0.4375,2.625 q -0.32812,0 -0.4375,1.03125 l 0.15625,0.4375 -0.29687,0.875 v 0.140625 l 0.14062,0.4375 -0.28125,3.078125 q 0.34375,0.453125 0.57813,3.203125 l -0.14063,0.59375 0.14063,0.4375 -0.29688,0.296875 v 0.71875 q 0.15625,0.46875 1.60938,0.875 l 0.15625,0.734375 v 0.296875 q -0.39063,0 -0.73438,0.734375 h -0.4375 l -0.875,-0.15625 q -0.65625,0.296875 -1.90625,0.296875 l -0.875,-0.296875 v 0.15625 l -0.14062,-0.15625 h -0.29688 l -1.17187,0.296875 q -0.70313,0 -1.75,-0.734375 l -1.46875,0.4375 q 0,-0.359375 -0.57813,-0.4375 v -0.28125 q 0.4375,0 0.4375,-0.734375 0.6875,0 1.01563,-1.90625 l 0.15625,-0.140625 v -1.3125 q 0,-3.03125 0.57812,-3.359375 v -0.15625 q -0.28125,-1.84375 -0.875,-2.1875 v -0.140625 q 0.4375,-0.546875 0.4375,-1.03125 v -1.015625 l -0.29687,-2.34375 v -0.140625 q 0,-1.015625 0.89062,-2.203125 0,-2.21875 -0.4375,-4.09375 h 0.14063 l 2.78125,0.15625 q 0,-0.390625 1.15625,-0.59375 z"
         style="fill:#4d4d4d"
         id="path931" />
      <path
         d="m 212.17187,36.912109 q 1.67188,0.71875 3.48438,0.875 l 1.01562,-0.296875 q 0.28125,0 1.01563,1.15625 v 1.3125 l -0.57813,0.859375 v 0.734375 l 0.14063,1.734375 -0.29688,2.03125 1.01563,2.328125 q 0,0.8125 -1.29688,4.203125 v 0.140625 l 0.28125,0.4375 -0.14062,0.578125 0.29687,1.453125 -0.15625,0.140625 v 0.140625 l 0.15625,0.140625 v 0.4375 h -0.15625 l 0.15625,1.015625 v 2.46875 l -0.15625,0.140625 v 0.140625 l -0.14062,-0.140625 h -0.14063 l -2.60937,0.4375 -1.89063,-1.015625 -1.73437,0.71875 h -0.29688 q -0.79687,0 -1.4375,-1 0,-0.59375 1.29688,-0.875 l 0.14062,-0.140625 v -0.15625 l -0.28125,-0.578125 0.57813,-1.59375 q 0,-1.28125 -0.4375,-1.875 l 0.29687,-1.171875 v -1.4375 l -0.15625,-0.59375 0.15625,-0.578125 -0.29687,-2.03125 0.4375,-1.59375 -0.4375,-2.3125 0.4375,-2.328125 q -0.79688,-1.53125 -2.03125,-2.171875 0,-1.59375 3.76562,-1.59375 z m 7.54688,0 0.57812,0.296875 0.14063,-0.15625 h 0.14062 l 1.59375,0.296875 1.59375,-0.140625 1.17188,0.28125 v 0.71875 l 0.14062,4.640625 q -0.625,0.78125 -1.45312,0.875 l -1.15625,-1.453125 v -0.4375 l 0.14062,-0.140625 q -0.92187,-1.734375 -1.875,-1.734375 l -0.15625,-0.578125 -1.29687,0.140625 q -0.73438,-0.09375 -0.73438,-0.875 v -1.15625 q 0,-0.28125 1.17188,-0.578125 z m 1.73437,6.375 v 0.875 q 0.39063,0 0.71875,4.78125 l -0.14062,0.4375 0.4375,1.15625 -0.14063,0.140625 0.14063,0.734375 q -0.1875,1.15625 -0.875,1.15625 -0.54688,-0.03125 -1.73438,-1.890625 -0.29687,0 -0.29687,-0.859375 l -1.01563,-1.015625 q 0,-2.03125 1.01563,-2.03125 0,-0.296875 0.4375,-0.296875 l 0.73437,-3.046875 0.14063,-0.140625 z M 224.5,52.271484 q 0.67187,0 0.85937,2.328125 h 0.15625 l -0.4375,1.15625 0.14063,0.140625 -0.14063,0.734375 v 2.3125 l -0.57812,0.140625 -2.75,-0.421875 -3.04688,0.421875 0.14063,-0.421875 -0.14063,-0.875 v -0.140625 q 0,-0.296875 1.29688,-0.296875 0.1875,-0.4375 2.03125,-1.453125 1.10937,-2.734375 2.17187,-3.625 z m 3.09375,-17.453125 -0.4375,-0.140625 q -0.375,0.25 -1.125,0.25 l -0.5625,-0.125 q -0.4375,0 -0.6875,0.125 l -0.6875,-0.0625 h -0.5625 l -0.0625,0.0625 -0.5,-0.125 -0.25,0.0625 -0.1875,-0.0625 -0.375,0.1875 -1,-0.1875 -1.25,0.0625 q -0.8125,0 -1.3125,-0.1875 -0.64063,0.4375 -0.875,0.4375 h -0.1875 l -1.1875,-0.25 h -0.875 l -0.4375,0.125 -1.0625,-0.125 q -0.29688,0 -0.9375,0.3125 -0.29688,0 -0.875,-0.4375 h -0.125 l -0.1875,0.1875 h -0.0625 v -0.125 h -0.0625 q -0.23438,0.25 -0.4375,0.25 l -0.5,-0.0625 -0.0625,0.0625 q -0.0625,-0.1875 -0.375,-0.1875 -0.9375,0.01563 -0.9375,0.125 l -0.6875,-0.1875 -0.375,0.0625 h -0.0625 q -0.1875,0 -0.25,-0.8125 h -0.0625 q 0.0625,-1.0625 0.6875,-1.0625 l 0.5625,-0.125 q 0,0.125 0.1875,0.125 l 0.5,-0.0625 v 0.0625 q 0.57812,-0.07813 0.8125,-0.25 0.60937,0.125 0.875,0.375 l 0.25,-0.0625 0.1875,0.0625 0.5,-0.0625 0.0625,0.0625 0.3125,-0.0625 h 0.1875 l 0.875,0.0625 0.0625,-0.0625 h 0.0625 l 0.375,0.125 1.125,-0.1875 h 0.1875 l 0.5,0.125 h 0.3125 q 0.45312,0 1.125,-0.1875 l 0.1875,0.0625 0.875,-0.0625 h 0.25 l 1,0.25 q 1.10937,-0.3125 1.5,-0.3125 0,0.1875 0.25,0.1875 l 0.375,-0.0625 0.5,0.0625 0.0625,-0.0625 0.0625,0.0625 h 0.0625 q 1.14062,0 2.4375,-0.25 l 0.6875,0.25 0.8125,-0.125 0.5,0.0625 0.3125,-0.109375 z m -0.0469,28.6875 -0.4375,0.125 -0.1875,-0.0625 -0.4375,0.125 -0.5625,-0.1875 h -1 l -0.375,-0.0625 -0.875,0.125 -1.0625,-0.25 -1,0.125 -0.4375,-0.0625 -0.25,0.0625 -0.3125,-0.0625 -0.3125,0.1875 -0.3125,-0.1875 q -0.71875,0.0625 -0.9375,0.25 l -0.9375,-0.125 -0.5625,0.125 -0.1875,-0.1875 h -0.1875 l -0.1875,0.1875 -0.25,-0.0625 -0.375,0.0625 -0.8125,-0.1875 v 0.0625 l -1,-0.3125 -1.3125,0.375 -1.75,-0.1875 q -0.0625,0.1875 -0.375,0.1875 h -0.25 q -0.32812,0 -0.5625,-0.1875 l -1.3125,0.1875 q -0.875,0 -0.875,-0.4375 l 0.0625,-0.25 q 0,-0.53125 -0.3125,-1 0.1875,-0.5 0.875,-0.5 l 0.9375,0.25 h 0.25 l 1.125,0.125 0.6875,-0.125 0.375,0.0625 1.875,-0.3125 h 0.3125 q 0.17188,0.25 1.8125,0.25 h 0.75 l 0.5625,-0.0625 q 0.875,0.09375 0.875,0.1875 l 1.25,-0.125 0.4375,0.125 q 0.29688,-0.1875 1.125,-0.1875 h 0.0625 l 0.625,0.1875 h 0.5 l 0.8125,-0.25 h 0.75 l 0.25,0.0625 0.0625,-0.0625 0.9375,0.0625 1.5625,-0.1875 0.875,0.171875 z"
         style="fill:#4d4d4d"
         id="path933" />
    </g>
    <ellipse
       style="fill:#0f920f;fill-opacity:0.94117647;fill-rule:nonzero;stroke:#007200;stroke-width:0.2654734;stroke-miterlimit:4;stroke-dasharray:none;stroke-opacity:1"
       id="path862-0"
       cx="-164.17323"
       cy="255.80846"
       rx="4.6155329"
       ry="3.7624028"
       transform="matrix(0.8745578,-0.48492129,0.58270013,0.81268724,0,0)" />
    <ellipse
       style="fill:#0f920f;fill-opacity:0.94117647;fill-rule:nonzero;stroke:#007200;stroke-width:0.2654734;stroke-miterlimit:4;stroke-dasharray:none;stroke-opacity:1"
       id="path862-0-3"
       cx="-22.375343"
       cy="292.26144"
       rx="4.6155329"
       ry="3.7624028"
       transform="matrix(0.99977985,0.02098223,0.09464841,0.99551076,0,0)" />
    <ellipse
       style="fill:none;fill-opacity:0.94117647;fill-rule:nonzero;stroke:#ffffff;stroke-width:0.79375;stroke-miterlimit:4;stroke-dasharray:none;stroke-opacity:1"
       id="path900"
       cx="13.890625"
       cy="274.6994"
       rx="4.9136906"
       ry="4.8191962" />
    <circle
       style="fill:none;fill-opacity:0.94117647;fill-rule:nonzero;stroke:#ffffff;stroke-width:0.26458332;stroke-miterlimit:4;stroke-dasharray:none;stroke-opacity:1"
       id="path906"
       cx="13.748884"
       cy="274.69943"
       r="2.7403271" />
    <ellipse
       style="fill:#ffffff;fill-opacity:1;fill-rule:nonzero;stroke:#ffffff;stroke-width:0.26458332;stroke-miterlimit:4;stroke-dasharray:none;stroke-opacity:1"
       id="path908"
       cx="12.756697"
       cy="274.06158"
       rx="0.8976934"
       ry="0.87406993" />
  </g>
</svg>
