<?xml version="1.0" encoding="UTF-8" standalone="no"?>
<!-- Created with Inkscape (http://www.inkscape.org/) -->

<svg
   xmlns:dc="http://purl.org/dc/elements/1.1/"
   xmlns:cc="http://creativecommons.org/ns#"
   xmlns:rdf="http://www.w3.org/1999/02/22-rdf-syntax-ns#"
   xmlns:svg="http://www.w3.org/2000/svg"
   xmlns="http://www.w3.org/2000/svg"
   xmlns:sodipodi="http://sodipodi.sourceforge.net/DTD/sodipodi-0.dtd"
   xmlns:inkscape="http://www.inkscape.org/namespaces/inkscape"
   width="720"
   height="1280"
   viewBox="0 0 190.5 338.66668"
   version="1.1"
   id="svg8"
   inkscape:version="0.92.3 (2405546, 2018-03-11)"
   sodipodi:docname="fundoAplicativo.svg"
   inkscape:export-filename="/opt/lampp/htdocs/MeuVigilante/fundoAplicativoLight.svg.png"
   inkscape:export-xdpi="96"
   inkscape:export-ydpi="96">
  <defs
     id="defs2" />
  <sodipodi:namedview
     id="base"
     pagecolor="#ffffff"
     bordercolor="#666666"
     borderopacity="1.0"
     inkscape:pageopacity="0.0"
     inkscape:pageshadow="2"
     inkscape:zoom="0.49497475"
     inkscape:cx="492.13983"
     inkscape:cy="715.93376"
     inkscape:document-units="mm"
     inkscape:current-layer="layer4"
     showgrid="false"
     units="px"
     inkscape:window-width="1600"
     inkscape:window-height="835"
     inkscape:window-x="0"
     inkscape:window-y="0"
     inkscape:window-maximized="1" />
  <metadata
     id="metadata5">
    <rdf:RDF>
      <cc:Work
         rdf:about="">
        <dc:format>image/svg+xml</dc:format>
        <dc:type
           rdf:resource="http://purl.org/dc/dcmitype/StillImage" />
        <dc:title></dc:title>
      </cc:Work>
    </rdf:RDF>
  </metadata>
  <g
     inkscape:label="Cenário"
     inkscape:groupmode="layer"
     id="layer1"
     transform="translate(0,41.666683)"
     sodipodi:insensitive="true">
    <rect
       style="fill:#0984e3;fill-opacity:1;fill-rule:nonzero;stroke:none;stroke-width:0.26458332;stroke-miterlimit:4;stroke-dasharray:none;stroke-opacity:1"
       id="rect815"
       width="197.30357"
       height="346.98215"
       x="0"
       y="-42.422634" />
  </g>
  <g
     inkscape:groupmode="layer"
     id="layer3"
     inkscape:label="Prédio e Cristo"
     style="display:inline"
     sodipodi:insensitive="true">
    <rect
       style="fill:#ffeaa7;fill-opacity:1;fill-rule:nonzero;stroke:none;stroke-width:0.26458332;stroke-miterlimit:4;stroke-dasharray:none;stroke-opacity:1"
       id="rect861"
       width="73.327377"
       height="79.752975"
       x="61.232143"
       y="140.98511" />
    <rect
       style="fill:#fdcb6e;fill-opacity:1;fill-rule:nonzero;stroke:none;stroke-width:0.24153042;stroke-miterlimit:4;stroke-dasharray:none;stroke-opacity:1"
       id="rect844"
       width="21.381563"
       height="102.6315"
       x="50.781212"
       y="119.50565" />
    <rect
       style="display:inline;fill:#fdcb6e;fill-opacity:1;fill-rule:nonzero;stroke:none;stroke-width:0.24153042;stroke-miterlimit:4;stroke-dasharray:none;stroke-opacity:1"
       id="rect844-3"
       width="21.381563"
       height="102.6315"
       x="126.13779"
       y="119.50565" />
    <path
       style="fill:#fdcb6e;fill-opacity:1;stroke:none;stroke-width:0.26458332px;stroke-linecap:butt;stroke-linejoin:miter;stroke-opacity:1"
       d="m 81.517205,141.02085 3.474504,-11.09169 31.136901,-0.13363 3.60813,11.35895 z"
       id="path1004"
       inkscape:connector-curvature="0"
       sodipodi:nodetypes="ccccc" />
    <rect
       style="fill:#dfe6e9;fill-opacity:0.58252432;fill-rule:nonzero;stroke:#2d3436;stroke-width:0.48765367;stroke-miterlimit:4;stroke-dasharray:none;stroke-opacity:1"
       id="rect863"
       width="18.354185"
       height="21.695057"
       x="72.139656"
       y="119.48254" />
    <rect
       style="display:inline;fill:#dfe6e9;fill-opacity:0.58252432;fill-rule:nonzero;stroke:#2d3436;stroke-width:0.4735845;stroke-miterlimit:4;stroke-dasharray:none;stroke-opacity:1"
       id="rect863-6"
       width="17.299177"
       height="21.709126"
       x="108.86641"
       y="119.47786" />
    <path
       style="fill:#dfe6e9;fill-opacity:1;stroke:none;stroke-width:0.26458332px;stroke-linecap:butt;stroke-linejoin:miter;stroke-opacity:1"
       d="m 86.060787,57.365489 c 0,0 -5.211755,12.561668 -11.358954,14.031648 -6.147199,1.469983 17.506153,0.668176 17.506153,0.668176 0,0 -3.207234,-15.902538 -6.147199,-14.699824 z"
       id="path1029"
       inkscape:connector-curvature="0" />
    <path
       style="fill:#dfe6e9;fill-opacity:1;stroke:none;stroke-width:0.26458332px;stroke-linecap:butt;stroke-linejoin:miter;stroke-opacity:1"
       d="m 124.28033,71.263504 c 0,0 -12.96257,-8.018087 -12.82894,-17.238885 0,0 -7.08264,18.040694 -4.27631,19.243407 2.80633,1.202712 17.10525,-2.004522 17.10525,-2.004522 z"
       id="path1031"
       inkscape:connector-curvature="0" />
    <rect
       style="fill:#dfe6e9;fill-opacity:1;fill-rule:nonzero;stroke:none;stroke-width:0.73049718;stroke-miterlimit:4;stroke-dasharray:none;stroke-opacity:1"
       id="rect1008"
       width="20.755302"
       height="61.471989"
       x="88.30677"
       y="68.590813" />
    <rect
       style="display:inline;fill:#dfe6e9;fill-opacity:0.58252432;fill-rule:nonzero;stroke:#2d3436;stroke-width:0.47940636;stroke-miterlimit:4;stroke-dasharray:none;stroke-opacity:1"
       id="rect863-7"
       width="17.986168"
       height="21.396452"
       x="90.55452"
       y="119.52002" />
    <rect
       style="fill:#fdcb6e;fill-opacity:1;fill-rule:nonzero;stroke:none;stroke-width:0.5805366;stroke-miterlimit:4;stroke-dasharray:none;stroke-opacity:1"
       id="rect894"
       width="3.0504916"
       height="73.476013"
       x="88.906342"
       y="141.17758" />
    <rect
       style="display:inline;fill:#fdcb6e;fill-opacity:1;fill-rule:nonzero;stroke:none;stroke-width:0.59410417;stroke-miterlimit:4;stroke-dasharray:none;stroke-opacity:1"
       id="rect894-5"
       width="3.0504916"
       height="76.950516"
       x="107.48235"
       y="140.91647" />
    <rect
       style="fill:#fdcb6e;fill-opacity:1;fill-rule:nonzero;stroke:none;stroke-width:0.77590978;stroke-miterlimit:4;stroke-dasharray:none;stroke-opacity:1"
       id="rect911"
       width="20.863138"
       height="5.7463055"
       x="71.093697"
       y="211.58" />
    <rect
       style="display:inline;fill:#fdcb6e;fill-opacity:1;fill-rule:nonzero;stroke:none;stroke-width:0.77590978;stroke-miterlimit:4;stroke-dasharray:none;stroke-opacity:1"
       id="rect911-3"
       width="20.863138"
       height="5.7463059"
       x="107.48235"
       y="212.12068" />
    <path
       style="fill:#2d3436;fill-opacity:1;fill-rule:nonzero;stroke:none;stroke-width:0.43715385;stroke-miterlimit:4;stroke-dasharray:none;stroke-opacity:1"
       d="m 80.389557,183.51646 a 8.3575352,7.4372878 0 0 0 -8.357187,7.43732 8.3575352,7.4372878 0 0 0 0.12262,1.27003 V 211.58 h 16.715324 v -20.62622 h -0.123096 a 8.3575352,7.4372878 0 0 0 -8.357661,-7.43732 z"
       id="rect928"
       inkscape:connector-curvature="0" />
    <path
       style="display:inline;fill:#2d3436;fill-opacity:1;fill-rule:nonzero;stroke:none;stroke-width:0.48171976;stroke-miterlimit:4;stroke-dasharray:none;stroke-opacity:1"
       d="m 100.1914,183.24921 a 8.3575353,9.0309792 0 0 0 -8.357187,9.03101 8.3575353,9.0309792 0 0 0 0.12262,1.54218 v 23.50391 h 16.715317 v -25.04609 h -0.12309 a 8.3575353,9.0309792 0 0 0 -8.35766,-9.03101 z"
       id="rect928-5"
       inkscape:connector-curvature="0" />
    <path
       style="display:inline;fill:#2d3436;fill-opacity:1;fill-rule:nonzero;stroke:none;stroke-width:0.42024776;stroke-miterlimit:4;stroke-dasharray:none;stroke-opacity:1"
       d="m 118.20945,184.19078 a 7.7605671,7.4018726 0 0 0 -7.76024,7.4019 7.7605671,7.4018726 0 0 0 0.11386,1.26398 v 19.26402 h 15.52137 v -20.528 h -0.1143 a 7.7605671,7.4018726 0 0 0 -7.76069,-7.4019 z"
       id="rect928-6"
       inkscape:connector-curvature="0" />
    <path
       style="display:inline;fill:#2d3436;fill-opacity:1;fill-rule:nonzero;stroke:none;stroke-width:0.41362217;stroke-miterlimit:4;stroke-dasharray:none;stroke-opacity:1"
       d="m 80.653612,148.50428 a 8.3575353,6.6581501 0 0 0 -8.357187,6.65817 8.3575353,6.6581501 0 0 0 0.12262,1.13699 v 17.32841 h 16.715324 v -18.4654 h -0.123096 a 8.3575353,6.6581501 0 0 0 -8.357661,-6.65817 z"
       id="rect928-2"
       inkscape:connector-curvature="0" />
    <path
       style="display:inline;fill:#2d3436;fill-opacity:1;fill-rule:nonzero;stroke:none;stroke-width:0.39686927;stroke-miterlimit:4;stroke-dasharray:none;stroke-opacity:1"
       d="m 99.501019,148.23701 a 7.6942372,6.6581502 0 0 0 -7.693918,6.65817 7.6942372,6.6581502 0 0 0 0.112888,1.13699 v 17.32841 h 15.388701 v -18.4654 h -0.11332 a 7.6942372,6.6581502 0 0 0 -7.694351,-6.65817 z"
       id="rect928-2-9"
       inkscape:connector-curvature="0" />
    <path
       style="display:inline;fill:#2d3436;fill-opacity:1;fill-rule:nonzero;stroke:none;stroke-width:0.4053323;stroke-miterlimit:4;stroke-dasharray:none;stroke-opacity:1"
       d="m 118.14062,148.23701 a 8.0258863,6.6581502 0 0 0 -8.02555,6.65817 8.0258863,6.6581502 0 0 0 0.11775,1.13699 v 17.32841 h 16.05202 v -18.4654 h -0.11822 a 8.0258863,6.6581502 0 0 0 -8.026,-6.65817 z"
       id="rect928-2-1"
       inkscape:connector-curvature="0" />
    <rect
       style="fill:#ffeaa7;fill-opacity:1;fill-rule:nonzero;stroke:none;stroke-width:0.52916664;stroke-miterlimit:4;stroke-dasharray:none;stroke-opacity:1"
       id="rect981"
       width="16.578493"
       height="2.3845811"
       x="72.154984"
       y="192.22382" />
    <rect
       style="display:inline;fill:#ffeaa7;fill-opacity:1;fill-rule:nonzero;stroke:none;stroke-width:0.52916664;stroke-miterlimit:4;stroke-dasharray:none;stroke-opacity:1"
       id="rect981-2"
       width="16.578493"
       height="2.3845813"
       x="91.970566"
       y="191.75105" />
    <rect
       style="display:inline;fill:#ffeaa7;fill-opacity:1;fill-rule:nonzero;stroke:none;stroke-width:0.50961065;stroke-miterlimit:4;stroke-dasharray:none;stroke-opacity:1"
       id="rect981-7"
       width="15.37578"
       height="2.3845813"
       x="110.56307"
       y="191.5304" />
    <ellipse
       style="fill:#dfe6e9;fill-opacity:1;fill-rule:nonzero;stroke:none;stroke-width:0.52916664;stroke-miterlimit:4;stroke-dasharray:none;stroke-opacity:1"
       id="path1027"
       cx="99.090172"
       cy="55.36097"
       rx="16.236624"
       ry="17.773424" />
    <rect
       style="fill:#dfe6e9;fill-opacity:1;fill-rule:nonzero;stroke:none;stroke-width:0.52916664;stroke-miterlimit:4;stroke-dasharray:none;stroke-opacity:1"
       id="rect1010"
       width="39.956787"
       height="10.958051"
       x="49.861881"
       y="68.590813" />
    <rect
       style="display:inline;fill:#dfe6e9;fill-opacity:1;fill-rule:nonzero;stroke:none;stroke-width:0.52916664;stroke-miterlimit:4;stroke-dasharray:none;stroke-opacity:1"
       id="rect1010-0"
       width="39.956795"
       height="10.958051"
       x="109.06207"
       y="68.590813" />
    <ellipse
       style="fill:#dfe6e9;fill-opacity:1;fill-rule:nonzero;stroke:none;stroke-width:0.57862192;stroke-miterlimit:4;stroke-dasharray:none;stroke-opacity:1"
       id="path1033"
       cx="45.10173"
       cy="71.864861"
       rx="7.3499122"
       ry="5.8799295" />
    <ellipse
       style="fill:#dfe6e9;fill-opacity:1;fill-rule:nonzero;stroke:none;stroke-width:0.58852142;stroke-miterlimit:4;stroke-dasharray:none;stroke-opacity:1"
       id="path1035"
       cx="79.45681"
       cy="15.578112"
       rx="3.7182665"
       ry="2.8589642"
       transform="matrix(0.73337255,0.67982697,-0.70814467,0.70606736,0,0)" />
    <path
       style="fill:none;stroke:#0984e3;stroke-width:0.26499999;stroke-linecap:butt;stroke-linejoin:miter;stroke-miterlimit:4;stroke-dasharray:none;stroke-opacity:1"
       d="m 36.950012,70.59533 c 0,0 4.193381,1.737247 8.552624,-0.133635"
       id="path1037"
       inkscape:connector-curvature="0" />
    <path
       style="fill:none;stroke:#0984e3;stroke-width:0.26499999;stroke-linecap:butt;stroke-linejoin:miter;stroke-miterlimit:4;stroke-dasharray:none;stroke-opacity:1"
       d="m 36.615925,74.270284 c 0,0 6.614919,2.271792 10.089425,-0.06682"
       id="path1039"
       inkscape:connector-curvature="0" />
    <ellipse
       style="display:inline;fill:#dfe6e9;fill-opacity:1;fill-rule:nonzero;stroke:none;stroke-width:0.57862192;stroke-miterlimit:4;stroke-dasharray:none;stroke-opacity:1"
       id="path1033-9"
       cx="153.0118"
       cy="72.132133"
       rx="7.3499122"
       ry="5.8799295" />
    <ellipse
       style="fill:#dfe6e9;fill-opacity:1;fill-rule:nonzero;stroke:none;stroke-width:0.26499999;stroke-miterlimit:4;stroke-dasharray:none;stroke-opacity:1"
       id="path1056"
       cx="106.96817"
       cy="127.26839"
       rx="3.8085907"
       ry="2.6392865"
       transform="rotate(-26.756745)" />
    <path
       style="fill:none;stroke:#0984e3;stroke-width:0.26458332px;stroke-linecap:butt;stroke-linejoin:miter;stroke-opacity:1"
       d="m 152.6109,71.263504 c 0,0 4.74403,1.336347 7.88445,-0.668174"
       id="path1058"
       inkscape:connector-curvature="0" />
    <path
       style="fill:none;stroke:#0984e3;stroke-width:0.26458332px;stroke-linecap:butt;stroke-linejoin:miter;stroke-opacity:1"
       d="m 152.41045,75.539816 c 0,0 4.67721,1.603616 8.55262,-0.668173"
       id="path1060"
       inkscape:connector-curvature="0" />
    <path
       style="fill:#b2bec3;fill-opacity:1;fill-rule:nonzero;stroke:none;stroke-width:0.26499999;stroke-miterlimit:4;stroke-dasharray:none;stroke-opacity:1"
       d="M 99.090126,42.264659 A 10.757599,11.525998 0 0 0 88.420493,52.397891 c -0.09634,0.05164 -0.192775,0.102465 -0.288353,0.156577 l 0.211873,0.988055 a 10.757599,11.525998 0 0 0 -0.01137,0.248047 10.757599,11.525998 0 0 0 1.197342,5.278747 l 1.943034,9.053711 c 2.815162,0.594548 5.572231,-0.131379 8.284766,-0.101285 2.690325,0.02985 5.336955,0.819986 7.951975,0.435631 l 1.58491,-11.04687 a 10.757599,11.525998 0 0 0 0.55294,-3.619934 10.757599,11.525998 0 0 0 -0.006,-0.190169 l 0.006,-0.04341 c 0,0 -0.008,-0.0036 -0.008,-0.0036 A 10.757599,11.525998 0 0 0 99.090126,42.264659 Z"
       id="path1062"
       inkscape:connector-curvature="0" />
    <path
       style="fill:none;stroke:#636e72;stroke-width:0.26458332px;stroke-linecap:butt;stroke-linejoin:miter;stroke-opacity:1"
       d="m 92.408437,53.556897 c 0,0 3.942226,2.472243 6.214018,-0.06682"
       id="path1067"
       inkscape:connector-curvature="0" />
    <path
       style="fill:none;stroke:#636e72;stroke-width:0.26458332px;stroke-linecap:butt;stroke-linejoin:miter;stroke-opacity:1"
       d="m 101.56242,53.890984 c 0,0 2.33861,2.338609 5.14494,-0.200451"
       id="path1069"
       inkscape:connector-curvature="0" />
    <path
       style="fill:none;stroke:#636e72;stroke-width:0.26458332px;stroke-linecap:butt;stroke-linejoin:miter;stroke-opacity:1"
       d="m 95.014316,62.443608 c 0,0 5.612664,3.942225 9.153984,0"
       id="path1071"
       inkscape:connector-curvature="0" />
  </g>
  <g
     inkscape:groupmode="layer"
     id="layer2"
     inkscape:label="Lados e rua"
     style="display:inline"
     sodipodi:insensitive="true">
    <path
       style="fill:#55efc4;fill-opacity:1;stroke:none;stroke-width:0.26458332px;stroke-linecap:butt;stroke-linejoin:miter;stroke-opacity:1"
       d="m 146.26497,205.93781 c 0,0 51.41658,2.70504 51.0386,-2.20865 l 13.79613,52.34971 h -43.84524 l -24.44199,-45.39923 z"
       id="path1182"
       inkscape:connector-curvature="0" />
    <path
       style="fill:#dfe6e9;fill-opacity:1;stroke:none;stroke-width:0.26458332px;stroke-linecap:butt;stroke-linejoin:miter;stroke-opacity:1"
       d="m 0,346.22618 52.916666,-129.26785 91.470234,1.51191 52.91667,127.75594 z"
       id="path818"
       inkscape:connector-curvature="0" />
    <path
       style="fill:#55efc4;fill-opacity:1;stroke:none;stroke-width:0.26458332px;stroke-linecap:butt;stroke-linejoin:miter;stroke-opacity:1"
       d="m -5.8586308,248.14137 c 0,0 37.1733668,-5.2081 39.6874988,-12.8512 2.514134,-7.64309 19.087798,-18.33184 19.087798,-18.33184 0,0 -10.772322,-26.45833 -17.386906,-25.13542 -6.614583,1.32292 -31.9389861,-6.99255 -35.15178382,-3.59077 -3.21279768,3.40179 -13.04017818,37.79762 -11.15029718,42.14435 1.8898805,4.34672 4.9136902,17.76488 4.9136902,17.76488 z"
       id="path1127"
       inkscape:connector-curvature="0" />
    <path
       style="fill:#00b894;fill-opacity:1;fill-rule:nonzero;stroke:none;stroke-width:1.03750467;stroke-miterlimit:4;stroke-dasharray:none;stroke-opacity:1"
       d="m 39.992188,670 a 22.993583,17.857143 0 0 0 -22.994141,17.85742 22.993583,17.857143 0 0 0 2.568359,8.18946 31.424563,24.999999 0 0 0 -4.867187,-0.33204 31.424563,24.999999 0 0 0 -31.423828,25 31.424563,24.999999 0 0 0 31.423828,25 31.424563,24.999999 0 0 0 29.322265,-16.08593 29.125202,25.714285 0 0 0 22.029297,8.94336 29.125202,25.714285 0 0 0 20.691407,-7.65039 25.29294,24.285714 0 0 0 0.851562,0.71484 28.358751,21.428572 0 0 0 -0.08203,1.2207 28.358751,21.428572 0 0 0 28.35742,21.42774 28.358751,21.428572 0 0 0 10.00195,-1.38672 27.592298,27.142855 0 0 0 9.97266,4.80078 29.285714,22.857144 0 0 0 29.15625,20.87305 29.285714,22.857144 0 0 0 2.74609,-0.12305 42.921351,39.999976 0 0 0 -3.58984,15.83594 42.921351,39.999976 0 0 0 12.375,28.08007 27.592298,24.285714 0 0 0 -20.03906,23.34961 27.592298,24.285714 0 0 0 0.006,0.14454 23.760034,25.714285 0 0 0 -19.13867,14.53906 36.789731,35.714285 0 0 0 -11.52344,-1.82617 36.789731,35.714285 0 0 0 -36.791017,35.71289 36.789731,35.714285 0 0 0 0.04102,1.13086 33.723922,35.000001 0 0 0 -19.96875,-6.84375 33.723922,35.000001 0 0 0 -30.914063,21.05664 36.789731,32.857144 0 0 0 -24.271484,-8.20118 36.789731,32.857144 0 0 0 -36.789063,32.85743 36.789731,32.857144 0 0 0 36.789063,32.85742 36.789731,32.857144 0 0 0 32.583984,-17.64844 33.723922,35.000001 0 0 0 22.601563,9.07813 33.723922,35.000001 0 0 0 33.722657,-35 33.723922,35.000001 0 0 0 -0.0488,-1.48633 36.789731,35.714285 0 0 0 23.04492,7.91406 36.789731,35.714285 0 0 0 36.65819,-33.18555 23.760034,25.714285 0 0 0 20.05859,-25.38672 23.760034,25.714285 0 0 0 -0.0488,-1.49804 27.592298,24.285714 0 0 0 1.58203,0.0703 27.592298,24.285714 0 0 0 27.5918,-24.28516 27.592298,24.285714 0 0 0 -3.30079,-11.47265 42.921351,39.999976 0 0 0 4.16993,-0.3125 32.191018,24.285689 0 0 0 5.26171,0.35547 A 32.191018,24.285689 0 0 0 250,810 32.191018,24.285689 0 0 0 248.82422,803.49414 42.921351,39.999976 0 0 0 250,794.28516 42.921351,39.999976 0 0 0 236.70312,765.40625 29.125202,28.571428 0 0 0 242.33594,748.57227 29.125202,28.571428 0 0 0 213.21094,720 a 29.125202,28.571428 0 0 0 -0.58399,0.0195 24.526489,23.571428 0 0 0 -23.94336,-18.5918 24.526489,23.571428 0 0 0 -22.88671,15.17383 27.592298,27.142855 0 0 0 -23.10157,-12.3164 27.592298,27.142855 0 0 0 -14.27734,3.94922 25.29294,24.285714 0 0 0 -24.81055,-19.66211 25.29294,24.285714 0 0 0 -16.851561,6.21484 29.125202,25.714285 0 0 0 -20.705078,-7.64453 29.125202,25.714285 0 0 0 -3.089843,0.17578 A 22.993583,17.857143 0 0 0 39.992188,670 Z"
       transform="scale(0.26458333)"
       id="path1073"
       inkscape:connector-curvature="0" />
    <path
       style="fill:#74b9ff;fill-opacity:1;stroke:none;stroke-width:0.26458332px;stroke-linecap:butt;stroke-linejoin:miter;stroke-opacity:1"
       d="m 71.093693,192.20296 -39.555888,50.78121 -57.730218,19.24341 -7.483547,83.92264 73.231849,-1.06909 z"
       id="path820"
       inkscape:connector-curvature="0"
       sodipodi:nodetypes="cccccc" />
    <path
       style="fill:#74b9ff;fill-opacity:1;stroke:none;stroke-width:0.26458332px;stroke-linecap:butt;stroke-linejoin:miter;stroke-opacity:1"
       d="m 133.63477,197.54835 40.09042,57.19568 71.09369,-2.67269 -12.82893,95.68248 -67.88646,1.0691 z"
       id="path822"
       inkscape:connector-curvature="0"
       sodipodi:nodetypes="cccccc" />
    <path
       style="fill:#00b894;fill-opacity:1;fill-rule:nonzero;stroke:none;stroke-width:1.00157475;stroke-miterlimit:4;stroke-dasharray:none;stroke-opacity:1"
       d="M 524.68164,742.35352 A 14.604709,11.680283 0 0 0 510.07617,754.0332 14.604709,11.680283 0 0 0 520.31055,765.17773 12.142857,12.142857 0 0 0 520,767.85742 12.142857,12.142857 0 0 0 532.14258,780 a 12.142857,12.142857 0 0 0 2.01367,-0.16992 11.071428,11.785714 0 0 0 -1.29883,5.52734 11.071428,11.785714 0 0 0 6.90625,10.91211 14.642857,15 0 0 0 -0.47851,3.73047 14.642857,15 0 0 0 6.00195,12.08984 15,13.214286 0 0 0 -0.28711,2.55274 15,13.214286 0 0 0 15,13.21484 15,13.214286 0 0 0 2.2168,-0.1582 13.928572,13.571428 0 0 0 6.38476,10.16601 7.1428569,8.5714283 0 0 0 7.11328,7.84961 7.1428569,8.5714283 0 0 0 7.06836,-7.41211 13.928572,13.571428 0 0 0 7.2168,-11.875 13.928572,13.571428 0 0 0 -13.92773,-13.57031 13.928572,13.571428 0 0 0 -1.21875,0.0605 15,13.214286 0 0 0 -6.7168,-9.36133 14.642857,15 0 0 0 0.43555,-3.55664 14.642857,15 0 0 0 -13.58204,-14.94531 11.071428,11.785714 0 0 0 -2.17773,-6.70703 15.714286,13.928572 0 0 0 9.33789,-8.85938 16.071428,15.714286 0 0 0 10.74609,14.60742 30.357142,14.285714 0 0 0 30.31836,13.76172 30.357142,14.285714 0 0 0 25.03907,-6.20898 19.642857,18.928571 0 0 0 9.96093,2.63672 19.642857,18.928571 0 0 0 19.64258,-18.92774 19.642857,18.928571 0 0 0 -19.64258,-18.92969 19.642857,18.928571 0 0 0 -19.19922,14.9668 30.357142,14.285714 0 0 0 -15.80078,-2.10937 30.357142,14.285714 0 0 0 -8.96289,0.65234 16.071428,15.714286 0 0 0 0.0332,-0.65234 16.071428,15.714286 0 0 0 -16.07032,-15.71289 16.071428,15.714286 0 0 0 -15.38086,11.17773 15.714286,13.928572 0 0 0 -15.6914,-13.32227 15.714286,13.928572 0 0 0 -7.88672,1.90235 14.604709,11.680283 0 0 0 -14.57422,-10.97656 z m 77.10352,104.78906 a 13.214286,12.857142 0 0 0 -11.3125,6.24219 6.0714286,9.6428575 0 0 0 -2.97266,-1.24219 6.0714286,9.6428575 0 0 0 -6.07227,9.64258 6.0714286,9.6428575 0 0 0 6.07227,9.64257 6.0714286,9.6428575 0 0 0 4.36719,-2.95703 13.214286,12.857142 0 0 0 6.64258,3.96875 12.499999,11.785714 0 0 0 -2.06641,7.07032 12.499999,11.785714 0 0 0 8.08008,10.4414 13.959051,12.545565 0 0 0 -0.28125,3.12305 13.959051,12.545565 0 0 0 14.28711,11.92187 13.959051,12.545565 0 0 0 3.54882,-0.50195 13.248336,13.320114 0 0 0 -1.80664,7.38086 13.248336,13.320114 0 0 0 11.9961,12.59375 15.227896,15.048485 0 0 0 -0.52149,5.375 15.227896,15.048485 0 0 0 13.83203,13.65234 19.026754,16.211427 0 0 0 0.0137,2.42969 19.026754,16.211427 0 0 0 19.78906,14.77344 19.026754,16.211427 0 0 0 18.19141,-16.19727 l -0.29493,-2.83593 a 19.026754,16.211427 0 0 0 -21.14257,-13.24024 l -0.22657,-2.53711 a 15.227896,15.048485 0 0 0 -15.36328,-12.40429 13.248336,13.320114 0 0 0 0.20703,-2.26758 l -0.0644,-1.31446 a 13.248336,13.320114 0 0 0 -14.16406,-11.96875 13.248336,13.320114 0 0 0 -1.96289,0.29883 13.959051,12.545565 0 0 0 1.58203,-5.77734 l -0.0684,-1.23828 a 13.959051,12.545565 0 0 0 -10.73047,-10.98047 12.499999,11.785714 0 0 0 0.084,-1.3086 l -0.0605,-1.16211 A 12.499999,11.785714 0 0 0 612.4082,867.62305 13.214286,12.857142 0 0 0 615,860 13.214286,12.857142 0 0 0 601.78516,847.14258 Z"
       transform="scale(0.26458333)"
       id="path1129"
       inkscape:connector-curvature="0" />
    <ellipse
       style="fill:#00b894;fill-opacity:1;fill-rule:nonzero;stroke:none;stroke-width:0.26499999;stroke-miterlimit:4;stroke-dasharray:none;stroke-opacity:1"
       id="path1137"
       cx="146.74927"
       cy="207.7924"
       rx="4.2522321"
       ry="3.4962797" />
    <ellipse
       style="fill:#00b894;fill-opacity:1;fill-rule:nonzero;stroke:none;stroke-width:0.26499999;stroke-miterlimit:4;stroke-dasharray:none;stroke-opacity:1"
       id="path1153"
       cx="156.19865"
       cy="223.47842"
       rx="3.8742559"
       ry="3.6852679" />
    <path
       style="fill:#00b894;fill-opacity:1;fill-rule:nonzero;stroke:none;stroke-width:0.26499999;stroke-miterlimit:4;stroke-dasharray:none;stroke-opacity:1"
       id="path1179"
       sodipodi:type="arc"
       sodipodi:cx="195.88615"
       sodipodi:cy="246.15698"
       sodipodi:rx="9.1659222"
       sodipodi:ry="8.2209816"
       sodipodi:start="0"
       sodipodi:end="6.107291"
       sodipodi:open="true"
       d="m 205.05208,246.15698 a 9.1659222,8.2209816 0 0 1 -8.763,8.21304 9.1659222,8.2209816 0 0 1 -9.53342,-7.49096 9.1659222,8.2209816 0 0 1 7.92482,-8.87163 9.1659222,8.2209816 0 0 1 10.23017,6.71097" />
    <path
       style="fill:#ffeaa7;fill-opacity:1;stroke:none;stroke-width:0.26458332px;stroke-linecap:butt;stroke-linejoin:miter;stroke-opacity:1"
       d="M 91.956831,217.32631 67.35192,347.75383 135.23838,347.21929 107.48235,217.86699 Z"
       id="path1184"
       inkscape:connector-curvature="0" />
    <path
       style="fill:#ffffff;fill-opacity:1;fill-rule:nonzero;stroke:none;stroke-width:0.26499999;stroke-miterlimit:4;stroke-dasharray:none;stroke-opacity:1"
       d="m 31.887283,14.20824 a 14.165285,12.828937 0 0 0 -1.410766,0.104903 14.165285,12.828937 0 0 0 -12.240596,11.682492 12.561667,12.561667 0 0 0 -0.91209,0.07493 12.561667,12.561667 0 0 0 -10.8608352,13.55576 12.561667,12.561667 0 0 0 8.6873252,10.845334 10.45692,12.160763 0 0 0 10.733194,9.955464 10.45692,12.160763 0 0 0 8.950875,-6.87038 10.52042,8.4489879 0 0 0 2.681491,0.192236 10.52042,8.4489879 0 0 0 6.857979,-2.372982 14.262193,11.656221 0 0 0 7.262606,1.327568 14.262193,11.656221 0 0 0 13.634826,-11.644767 l -0.219626,-2.039671 a 14.262193,11.656221 0 0 0 -1.061434,-2.76417 14.699824,12.828937 0 0 0 3.361552,-8.155575 L 67.124925,25.854556 A 14.699824,12.828937 0 0 0 50.718692,15.381812 14.699824,12.828937 0 0 0 42.911934,18.509786 14.165285,12.828937 0 0 0 31.887283,14.20824 Z"
       id="path1186"
       inkscape:connector-curvature="0" />
    <path
       style="fill:#ffffff;fill-opacity:1;fill-rule:nonzero;stroke:none;stroke-width:0.26499999;stroke-miterlimit:4;stroke-dasharray:none;stroke-opacity:1"
       d="m 171.08275,82.762584 a 13.956784,12.227577 0 0 0 -1.39009,0.09973 13.956784,12.227577 0 0 0 -12.06748,13.195577 13.956784,12.227577 0 0 0 1.81229,5.025539 10.156241,9.3544331 0 0 0 -5.98568,9.35498 10.156241,9.3544331 0 0 0 10.56369,8.52352 10.156241,9.3544331 0 0 0 7.26106,-3.25976 9.4327868,9.2374505 0 0 0 8.39742,4.32894 9.4327868,9.2374505 0 0 0 9.01857,-9.22838 l -0.14573,-1.61644 a 9.4327868,9.2374505 0 0 0 -5.79396,-6.95874 13.956784,12.227577 0 0 0 2.73213,-7.244013 L 185.26948,92.84414 A 13.956784,12.227577 0 0 0 171.08275,82.762584 Z"
       id="path1200"
       inkscape:connector-curvature="0" />
  </g>
  <g
     inkscape:groupmode="layer"
     id="layer4"
     inkscape:label="Fundos" />
</svg>
